<svg width="111" height="93" viewBox="0 0 111 93" fill="none" xmlns="http://www.w3.org/2000/svg">
<g clip-path="url(#clip0_7_44)">
<path fill-rule="evenodd" clip-rule="evenodd" d="M102.479 83.0387V81.7127H3.74609V83.0387H102.479ZM106.068 67.8208C108.264 67.8208 110.076 69.6313 110.076 71.8292C110.076 73.8983 108.264 75.7083 106.068 75.7083C103.998 75.7083 102.187 73.8983 102.187 71.8292C102.187 69.6313 103.998 67.8208 106.068 67.8208ZM106.068 68.5967C104.387 68.5967 102.963 70.0193 102.963 71.8292C102.963 73.5098 104.387 74.9323 106.068 74.9323C107.877 74.9323 109.3 73.5098 109.3 71.8292C109.3 70.0187 107.877 68.5967 106.068 68.5967ZM107.101 73.8983L106.196 72.0873H105.292V73.8983H104.516V69.6313H106.584C106.972 69.6313 107.36 69.6313 107.748 69.8894C108.135 70.1474 108.135 70.536 108.135 70.9245C108.135 71.6999 107.748 72.0873 107.101 72.0873L108.006 73.8983H107.101ZM107.36 70.7946C107.36 70.2767 106.714 70.2768 106.326 70.2768H105.291V71.4406H106.584C107.101 71.4412 107.36 71.4412 107.36 70.7946ZM26.2013 66.0507L27.2353 64.6281L27.3646 64.112L28.1399 63.2062L29.3038 61.7842L30.2085 60.879L31.1137 59.9731L31.631 59.4564L32.1483 58.9397L32.665 58.4219L32.9243 58.2925L33.1823 58.4219L33.0536 58.8104L32.2782 59.8444L31.5023 61.2664L30.7264 62.1722L29.3038 64.2408L28.5273 65.0161L27.7514 65.534L27.2353 66.0507L26.4587 66.9554L25.1661 68.3791L24.6488 69.0251L23.8729 70.0591L22.9676 71.0936L26.2013 66.0507ZM33.0536 72.6455L33.3116 71.8696L33.6996 71.3523L34.0881 70.4464L34.4755 69.8004L34.7348 69.1544L34.8629 68.3791V67.7319L35.1221 67.0853L35.5107 66.3093L35.8981 65.2753L36.0268 64.6281L36.4154 64.112L36.6734 63.4642L36.8027 63.0769L36.5441 62.8182L36.4154 62.5596L36.8027 61.7842L37.1907 61.1376L37.708 60.3611L38.0965 59.5858L38.4851 59.1978L39.1317 58.0339L39.7771 56.87L40.5531 56.3533L41.1991 55.578L41.8469 54.9308L42.6222 53.8974L42.751 53.6375L43.3976 52.9915L43.2682 53.5082L43.1389 54.4135L42.6222 55.4486L42.4935 56.0947L42.3636 56.6114L42.1049 57.258V57.7753L41.975 58.0339V58.2925L42.1049 58.5518V59.8444L41.8469 60.6197L41.3284 61.3957L40.8117 62.3015L40.2944 63.0769L39.907 63.8516L39.3892 64.6281L38.7431 65.1454L38.4851 65.2753L37.9666 65.9214L37.32 66.8266L36.8027 67.6025L36.286 67.9905L36.0268 68.5078L35.7693 68.8958L35.6394 69.4125L35.3808 70.0591L34.994 70.5764L34.4755 70.9643L34.0881 71.481L33.6996 71.9989L33.5697 72.2575L33.3116 72.6455L33.0536 73.0329V72.6455ZM57.1033 48.4653L57.2327 48.9825V49.2412L57.362 49.7585L56.9746 50.5338L56.716 51.0517L56.9746 52.0869L57.62 54.0261L58.0086 55.7061L58.396 57.258L58.915 58.5518L59.9496 59.7151L60.595 60.2318L61.371 60.6197L61.7589 61.0083L62.2762 61.913L62.9222 63.0769L63.4401 63.9821L63.9574 65.2753L64.6022 66.18L65.25 67.3433L65.5087 68.3791L66.0265 69.2831L66.4139 70.1878L66.93 71.3523L67.1887 71.9989L67.5772 73.0329L67.9646 73.8094L68.3532 74.4548L68.4825 74.9721L68.7405 75.3607L69.0004 75.8786L69.2584 76.136L69.5165 76.524L69.6458 76.2653L69.7751 75.7481L69.6458 75.3607L69.7751 74.9721L69.6458 74.5847L69.5165 74.3261L69.3866 74.0675L69.2584 73.5502L69.0004 73.1616L68.7405 72.6455L68.6112 71.9989V71.6103L68.4825 71.3523V70.9643L68.6112 70.5764L68.8699 70.4464V70.0591L68.7405 69.5418L68.4825 68.8958L68.2238 68.3791L67.7066 67.8612L67.3192 67.3433L66.93 66.5685L66.672 65.7926L66.4139 65.1454L66.1553 64.7575L65.7679 63.7241L65.5087 62.6889L65.1213 62.0423L64.9908 61.6537L64.8615 61.2664L65.1213 60.879L65.3793 60.6197V60.1025L65.1213 59.4564L64.9908 58.9397L64.6022 58.4219L64.3442 58.0339L64.2149 57.5172L63.9574 57.1292L63.5688 56.482L63.3096 55.9647L63.0521 55.3181L62.5337 54.5428L62.2762 53.8974L61.5003 52.9915L60.9824 52.3443L60.8537 52.0869L60.3358 51.4397L59.9496 50.6637L59.561 50.1459L59.1725 49.3711L58.915 48.9825L58.396 48.0779L57.7494 47.1732L57.362 46.5254L56.9746 45.88L56.4567 45.2328L55.8113 44.3281L57.1033 48.4653ZM64.3442 50.5338L64.8615 51.0517L65.5087 51.827L66.1553 52.4742L66.93 53.2496L67.7066 54.0261L68.4825 54.9308L69.0004 55.578L69.7751 56.3533L70.0343 56.87L70.293 57.1292L70.4217 57.5172L70.551 58.4219L70.6804 58.9397L71.0689 59.3271L71.7144 59.9731L72.6196 61.0083L73.3955 61.6537L74.1715 62.3015L75.5946 63.5936L75.982 64.112L76.2395 64.6281L76.4987 65.1454L76.8872 65.6633L77.2746 66.18L77.7925 66.9554L78.0505 67.6025L78.4391 68.2486L78.9558 68.8958L79.2144 69.6711L79.6018 70.0591L79.861 70.7057L80.1203 71.0936L80.3789 71.7397L80.7663 72.3869L81.283 73.1616L81.6715 74.0675L80.8956 73.0329L80.1203 71.9989L78.6977 70.3171L77.6632 69.2831L76.8872 68.5078L76.2395 67.6025L75.4653 66.9554L74.8175 66.18L74.3008 65.7926L73.6542 65.6633L73.268 65.534L72.8783 65.1454L72.6196 64.6281L72.2322 64.2408L71.5856 63.4642L70.9396 62.8182L70.4217 62.3015L70.0343 61.913L69.6458 61.2664L69.2584 60.491L68.8699 59.8444L68.4825 58.9397L67.9646 58.0339L67.1887 56.482L66.672 55.578L66.1553 54.4135L65.7679 53.6375L65.25 52.7329L64.9908 52.0869L64.6022 51.4397L64.3442 51.3103V51.0517L64.0855 50.6637L63.8287 49.8878L64.3442 50.5338ZM75.7239 58.0339L76.2395 58.6811L76.7579 59.4564L77.0177 59.8444L77.1453 60.3611V61.1376L77.4039 61.525L77.7925 61.913L78.1799 62.5596L78.8271 63.0769L79.3443 63.8516L79.861 64.2408L80.2484 64.7575L81.4123 66.0507L81.9296 66.6973L82.4475 67.2146L82.8349 67.6025L83.3527 68.1192L82.5768 66.8266L81.6715 65.6633L81.1537 64.7575L80.8956 64.3701L80.637 63.9821V63.0769L80.5082 62.6889L80.2484 62.3015L79.4725 61.3957L78.6977 60.491L77.9218 59.7151L77.1453 59.0685L76.4987 58.4219L75.982 57.7753L75.3354 57.3879L75.7239 58.0339Z" fill="white"/>
<path fill-rule="evenodd" clip-rule="evenodd" d="M9.77735 52.6073C9.77377 60.1351 11.7347 67.5335 15.4663 74.0713L19.4747 69.8042L23.3544 64.7613L27.8801 59.8482L37.0602 49.245L38.0947 47.9523L39.3868 47.6943L40.1627 47.1776L44.6896 42.91L46.4989 41.3587L52.0597 36.9617L53.0925 36.4445L54.3858 36.7037L55.9382 38.255L58.654 40.8414L60.7225 41.3587L63.9556 44.0744L68.0927 47.9529L70.678 48.9875L74.1697 51.4446L77.0153 54.8064L81.0226 60.3661L84.1257 63.7284L86.5816 67.2195L88.3933 69.03L90.0745 71.2285L91.2378 73.0379C94.8588 67.0902 95.8916 59.4614 95.8916 52.6091C95.8916 28.8162 76.6268 9.55078 52.8351 9.55078C29.044 9.54844 9.77735 28.8145 9.77735 52.6073Z" fill="white"/>
<path fill-rule="evenodd" clip-rule="evenodd" d="M24.648 11.7449L24.0014 14.4607L26.4579 16.0125L23.6134 16.2712L22.9668 18.9864L21.8035 16.3999L18.9578 16.5292L21.1569 14.7199L19.993 12.1329L22.4501 13.5554L24.648 11.7449ZM61.2414 3.72814L58.655 5.15068L59.3004 7.99576L57.2318 6.05593L54.7753 7.60779V7.47847L55.9392 4.89203L53.7413 2.95279L56.5852 3.21144L57.7485 0.625L58.3951 3.47008L61.2414 3.72814ZM42.1041 4.1161L40.4229 6.44331L42.1041 8.77169V8.90043L39.3883 7.86644L37.7072 10.1936V7.34915L34.9932 6.31457L37.7072 5.53864V2.69415H37.8365L39.3883 5.02136L42.1041 4.1161ZM51.4135 2.95279L49.3455 4.89203L50.5083 7.47847H50.3795L48.0517 6.05593L45.8539 7.99576L46.4999 5.15068L44.0434 3.72814V3.59882L46.8884 3.34076L47.4051 0.625L48.5684 3.21144L51.4135 2.95279ZM32.9234 7.22041L31.6302 9.80568L33.6988 11.7449L30.9836 11.3575L29.6916 13.9428L29.1731 11.0983L26.3286 10.7103L28.9156 9.4183L28.3983 6.5738L30.337 8.51246L32.9234 7.22041ZM7.32122 33.21L8.09774 36.0539H10.9422L8.61385 37.6058L9.51911 40.3209L7.1919 38.6398L4.86411 40.1922L5.77053 37.6058L3.57206 35.9252V35.7959L6.28723 35.9252L7.32122 33.21ZM11.5888 24.934L11.9762 27.7791L14.8207 28.2969L12.2349 29.4597L12.6234 32.3042L10.683 30.2356L7.96783 31.3995L9.38978 28.943L7.45113 26.8732L10.1657 27.3917L11.5888 24.934ZM17.5359 17.5638L17.4072 20.4089L19.993 21.4429V21.5728L17.2772 22.2194L17.1485 24.934V25.0639L15.5972 22.6068L12.7516 23.2528L14.5621 21.0555L13.1401 18.7271V18.5978L15.7266 19.7623L17.5359 17.5638ZM4.3474 41.8728H4.47614L5.77053 44.4587L8.61385 43.9414L6.54529 46.0111L7.96783 48.467H7.83851L5.38198 47.175L3.31283 49.243L3.70079 46.3985L1.24368 45.1053L3.95944 44.7179L4.3474 41.8728ZM6.15674 70.3189H6.28723L8.74317 71.6121L10.8129 69.6729L10.2956 72.518L12.7516 73.8112L9.90766 74.1986L9.38978 77.0437L8.09774 74.4566L5.38198 74.7164L7.45113 72.9054L6.15674 70.3189ZM3.95944 61.0101L6.028 62.82L8.61385 61.5268L7.32122 64.1138L9.51911 65.9231L6.67461 65.6651L5.38198 68.2504L4.86411 65.407L2.0202 65.1472L4.47614 63.7259L3.95944 61.0101ZM3.18351 51.3121L4.99401 53.51L7.70919 52.6059L6.028 54.9326L7.83851 57.2598H7.70919L4.99401 56.3551L3.31283 58.6829V55.8378L0.597656 55.0619L3.31283 54.1572L3.18351 51.3121ZM102.229 36.4419L100.032 38.1236L100.937 40.8388H100.807L98.6096 39.1582L96.2818 40.8388L97.1864 38.1236L94.8598 36.4419H97.7031L98.6096 33.7267L99.3843 36.4419H102.229ZM97.5744 31.5282L94.9891 30.3643L93.0493 32.4341L93.4367 29.5902L90.8502 28.4257L93.6953 27.9084L94.0839 25.0639L95.3765 27.5204L98.221 27.0031L96.2818 29.0723L97.5744 31.5282ZM93.0493 23.5114V23.6408L90.2036 22.866L88.6524 25.322L88.5236 22.4775L85.8079 21.8309L88.3943 20.7963L88.265 17.8225L90.0755 20.0203L92.6607 18.9864H92.7912L91.2388 21.3136L93.0493 23.5114ZM86.9723 16.7885L84.1267 16.5292L82.9634 19.1157L82.3173 16.3999L79.4717 16.1419L81.9288 14.7199L81.2822 11.8742L83.4801 13.6847L85.9372 12.2628L84.775 14.8486L86.9723 16.7885ZM79.4717 10.9696L76.6284 11.2276L75.9812 14.0727L74.8167 11.4874L71.9722 11.7449L74.1706 9.80568L73.0073 7.22041L75.4644 8.64178L77.5336 6.70254L77.0169 9.4183L79.4717 10.9696ZM70.6795 6.44331L68.0943 7.34915V10.323L66.4131 7.99576L63.6973 9.02975V8.90043L65.3785 6.5738L63.6973 4.37592V4.24601L66.4131 5.15068L67.9638 2.82347V5.53864L70.6795 6.44331ZM103.394 65.5358L100.548 65.7944L99.9022 68.5096L98.8682 65.9231L96.0231 66.1818L98.221 64.2425L97.1864 61.6555L99.5148 63.0787L101.713 61.2682L101.065 63.9839L103.394 65.5358ZM100.29 74.8446L97.4451 74.4566L96.2818 77.0437L95.7651 74.3279L92.92 73.9405L95.3765 72.518L94.8598 69.6729L96.9284 71.6121L99.3843 70.3189H99.5148L98.221 72.776L100.29 74.8446ZM105.074 55.9665H104.945L102.229 56.7425L101.971 59.5876L100.548 57.131L97.8324 57.7771H97.7031L99.6429 55.5797L98.221 53.122L100.807 54.1572L102.617 52.0886L102.358 54.9326L105.074 55.9665ZM104.556 46.3985L101.971 47.5624L102.229 50.4069L100.419 48.209L97.8324 49.3729H97.7031L99.2556 46.9158L97.3169 44.7179L100.161 45.3645L101.583 42.9074L101.842 45.7519L104.556 46.3985ZM13.8558 87.5919L14.7751 89.5645L15.6938 87.5919H17.1228L14.7751 92.4142L12.4268 87.5919H13.8558ZM27.379 92.3042L28.1965 90.3316L29.217 92.3042H30.5441L28.1965 87.4819L25.9506 92.3042H27.379ZM4.41294 92.3042L5.33165 90.3316L6.35277 92.3042H7.6811L5.33165 87.4819L2.98397 92.3042H4.41294ZM48.4555 92.5237L47.435 90.441L46.7199 92.3042H45.2909L47.3326 87.4819L48.4555 89.7839L49.5784 87.4819L51.6207 92.3042H50.1911L49.4772 90.441L48.4555 92.5237ZM22.1236 87.5919H20.8988V92.3042H22.1236V87.5919ZM41.77 87.4819C42.9953 87.4819 44.017 88.5773 44.017 89.8927C44.017 91.3176 42.9953 92.4142 41.77 92.4142C40.444 92.4142 39.4223 91.3176 39.4223 89.8927C39.4223 88.5773 40.444 87.4819 41.77 87.4819ZM42.7911 89.8927C42.7911 89.345 42.2814 88.7973 41.77 88.7973C41.1585 88.7973 40.647 89.3456 40.647 89.8927C40.647 90.5505 41.1585 91.0994 41.77 91.0994C42.2814 91.0994 42.7911 90.5505 42.7911 89.8927ZM36.3613 90.9893V92.3042C36.1571 92.4142 36.0552 92.4142 35.8504 92.4142C34.6245 92.4142 33.6046 91.3176 33.6046 89.8927C33.6046 88.5773 34.6245 87.4819 35.8504 87.4819C36.0552 87.4819 36.1565 87.4819 36.3613 87.5919V88.7979H35.8504C35.3402 88.7979 34.8293 89.3462 34.8293 89.8933C34.8293 90.5511 35.3402 91.0999 35.8504 91.0999C36.0552 91.0994 36.1571 91.0994 36.3613 90.9893ZM85.2777 92.3042L86.1964 90.3316L87.1157 92.3042H88.5441L86.1964 87.4819L83.8481 92.3042H85.2777ZM73.6943 90.441L74.5095 92.3042H75.9402L73.7961 87.4819L72.6726 89.7839L71.6533 87.4819L69.508 92.3042H70.9376L71.7539 90.441L72.6726 92.5237L73.6943 90.441ZM66.0392 87.4819C67.2633 87.4819 68.285 88.5773 68.285 89.8927C68.285 91.3176 67.2633 92.4142 66.0392 92.4142C64.712 92.4142 63.6903 91.3176 63.6903 89.8927C63.6903 88.5773 64.712 87.4819 66.0392 87.4819ZM67.0597 89.8927C67.0597 89.345 66.5489 88.7973 66.0392 88.7973C65.4265 88.7973 65.0175 89.3456 65.0175 89.8927C65.0175 90.5505 65.4265 91.0994 66.0392 91.0994C66.5489 91.0994 67.0597 90.5505 67.0597 89.8927ZM60.119 91.0994C59.5064 91.0994 59.0973 90.5505 59.0973 89.8927C59.0973 89.345 59.5064 88.7973 60.119 88.7973H60.6299V87.5913C60.4251 87.4813 60.3239 87.4813 60.119 87.4813C58.8949 87.4813 57.8732 88.5767 57.8732 89.8922C57.8732 91.317 58.8949 92.4136 60.119 92.4136C60.3239 92.4136 60.4251 92.4136 60.6299 92.3036V90.9888C60.4251 91.0994 60.3233 91.0994 60.119 91.0994ZM77.7244 87.5919V92.3048H78.9509V90.7711H79.7672C80.5835 90.7711 81.1967 90.2222 81.1967 89.3456C81.1967 88.1396 80.3799 87.5919 79.4606 87.5919H77.7244ZM78.9503 89.7839V88.6879H79.1539C79.46 88.6879 79.8684 88.6879 79.8684 89.2356C79.8684 89.6745 79.5624 89.7845 79.1539 89.7845L78.9503 89.7839ZM99.7196 89.235L100.435 87.5919H101.864L100.332 90.7705V92.3042H99.1081V90.7705L97.4749 87.5919H98.9021L99.7196 89.235ZM92.8299 89.0168L93.5443 89.6739V87.5919H94.8733V92.4142L92.3202 90.441V92.3042H90.993V87.5919L92.8299 89.0168Z" fill="white"/>
<path fill-rule="evenodd" clip-rule="evenodd" d="M20.7475 38.22C20.1009 37.8326 19.7135 36.7986 19.5836 36.0221C19.4543 35.3755 19.5836 34.8582 19.9722 34.3415C20.2303 33.8242 21.0068 33.8242 21.3953 33.9529C21.7827 34.2122 22.0413 34.4702 21.912 34.8582C21.7827 35.5054 21.1361 35.8928 21.1361 36.6687C21.1361 37.3153 22.0408 37.7033 22.5575 37.8326C23.8513 38.22 25.0146 38.0907 26.1785 37.3153C30.3162 33.8242 29.5403 27.6179 34.5838 25.1608L35.2298 25.0321C33.6785 26.7127 33.4199 28.3939 32.7739 30.3331C32.7739 30.463 33.2912 30.3331 33.5498 30.3331C35.4891 29.5578 36.6524 27.876 36.5236 25.9373C36.5236 24.6435 35.4896 23.479 34.3263 23.0923C30.9645 21.9289 27.4723 22.575 25.1451 25.1608C23.7225 26.8414 23.0765 28.3933 23.5938 30.463C23.7225 30.9803 24.2398 31.497 24.8876 31.6269C25.5336 31.885 26.1796 32.0143 26.8262 31.6269C27.8608 31.3677 25.6624 29.2991 28.2494 29.2991C28.5068 29.2991 28.7661 29.6877 28.7661 30.075C28.8954 30.7222 28.5074 31.6269 27.9901 32.0143C26.8262 32.7902 25.275 33.1782 23.8524 32.7902C22.9472 32.5322 22.0419 31.8856 21.5246 30.9803C20.8786 29.8164 21.1373 27.6185 21.9132 26.5834C23.8524 23.3509 27.4729 21.6703 31.0933 21.541C33.9378 21.4117 36.7829 22.1876 38.3347 24.5148C38.9813 25.5499 38.9813 27.6185 38.2054 28.6525C36.9122 30.4636 34.585 31.3683 32.3865 31.497C31.8692 34.6007 29.4127 37.4452 26.4383 38.4792C24.7571 38.9965 22.2988 39.2546 20.7475 38.22ZM78.1582 34.2122V33.5656C77.253 34.2122 76.3477 34.7289 75.3137 34.3415C74.9264 34.0828 75.0557 33.5656 75.1844 33.1776C75.573 32.0137 75.8304 31.4958 76.3477 30.2032C76.2184 29.9451 75.9592 30.2032 75.8298 30.2032C74.1487 31.4964 74.0193 32.7896 73.2446 34.3415H71.5634L72.0801 33.4357C71.5634 33.9529 71.3042 33.9529 70.6582 34.2122C70.2708 34.3415 69.7529 34.7289 69.2362 34.3415C68.977 34.0828 69.1057 33.8242 68.977 33.5656C68.201 34.2122 67.297 34.8582 66.2612 34.3415C65.7445 34.0828 66.0032 33.4357 66.1319 33.0489L67.0371 30.851C66.7791 30.9803 66.2612 31.109 65.8738 31.2384C65.0991 32.9201 63.8053 34.6001 61.7355 34.7295C61.2188 34.6001 60.5734 34.0834 60.4441 33.5661C60.3136 33.4362 60.5734 33.4362 60.4441 33.4362C59.7975 34.0829 58.7629 34.7295 57.5984 34.3421C57.0805 34.0834 57.3403 33.3075 57.4703 32.7902C57.987 31.6269 57.8576 31.7562 58.5037 30.463C58.7629 29.5578 57.7289 29.9451 57.5984 30.3331C56.4351 31.7556 56.4351 32.7896 55.6597 34.2128C55.1413 34.3421 54.4958 34.2128 53.978 34.2128C54.6246 32.7896 55.2712 31.7556 55.9178 30.2032C55.9178 30.0745 55.9178 29.8158 55.7873 29.8158C54.8826 29.9451 54.6246 30.7217 54.1067 31.3671L52.6842 34.3415H51.2616C51.2616 33.9529 51.3921 33.6943 51.5197 33.4357C50.8737 33.9529 50.0977 34.5996 49.0643 34.3415C48.8039 34.0828 48.6758 33.6943 48.8039 33.3069C48.2878 33.4357 47.8999 33.9529 47.5119 34.2122C46.9946 34.3415 46.4767 34.4702 45.96 34.3415C45.1841 33.4357 45.8307 32.2729 46.3486 31.4964L46.8647 30.8504C46.4773 30.7211 45.96 31.1084 45.5715 30.7211L45.3146 30.0739C44.0214 31.2378 43.8915 32.6597 43.1155 34.2122H41.693C41.693 33.6937 41.8235 33.8236 42.0804 33.3069C41.1763 33.9529 40.3998 34.5996 39.2359 34.0828C38.9778 33.8242 39.1066 33.4362 38.9778 33.1782C38.2019 33.8242 37.2972 34.6001 36.1333 34.0828C35.7448 33.8242 35.616 33.3069 35.8741 32.7896C36.392 30.851 38.2025 29.0399 40.1417 28.3933C40.9171 28.2645 41.8235 28.2645 42.4689 28.6513L40.5297 32.531C40.5297 32.789 40.5297 33.0483 40.7889 33.1776C42.8575 32.2729 43.1161 30.2032 44.0214 28.6513H45.4427C45.4427 29.0399 45.0554 29.4284 45.1841 29.6865C45.8307 29.1692 46.4773 28.264 47.2532 28.3933C47.5125 29.0399 46.4773 29.5572 46.8647 30.2032C47.7705 30.0745 48.4171 29.1692 49.1931 28.9111C50.0977 28.3933 51.2616 28.2645 52.1669 28.6519C51.6496 30.0745 50.8748 31.3677 50.2271 32.7896C50.2271 33.0489 50.2271 33.1782 50.4863 33.1782C51.3921 32.9201 51.5203 32.1442 52.1669 31.6269L53.8487 28.6525H55.1407C55.012 28.9117 54.8826 29.1704 54.8826 29.4296C55.6592 28.9123 56.4339 28.2657 57.4697 28.6525C57.7277 28.9117 57.7277 29.1704 57.857 29.4296C58.633 28.7824 59.5371 28.1364 60.5728 28.7824C60.8309 29.171 60.5728 29.4296 60.4435 29.6883C59.9256 30.9809 59.2802 31.8861 59.0204 33.1794C59.1497 33.4374 59.4077 33.3087 59.5371 33.1794C61.2182 32.1454 60.7015 30.7228 62.1235 29.4302C63.1581 28.6531 64.3226 28.0071 65.6152 28.6531C66.1319 29.0416 66.0026 29.6882 66.1319 30.2044C67.0371 30.3343 67.8142 29.5583 68.2005 28.7824C68.589 28.6531 69.2362 28.6531 69.6236 28.7824L67.8142 32.9207C67.8142 33.05 67.8142 33.1788 67.9424 33.3081C70.011 32.4034 70.1414 30.4636 71.0467 28.7824C71.5634 28.6531 72.0801 28.7824 72.5986 28.7824C72.0795 30.2044 71.3036 31.2395 70.7869 32.6615C70.7869 32.9207 70.5288 33.3081 70.9162 33.1788C72.7279 32.1448 73.3733 30.5929 74.1481 28.7818C74.666 28.6525 75.0545 28.7818 75.5724 28.7818C75.5724 29.0405 75.3131 29.429 75.3131 29.6877C76.0891 29.0411 76.9943 28.2651 78.0289 28.6525C78.5456 29.0411 78.287 29.6877 78.1582 30.075L76.7351 33.0494C76.7351 33.1788 76.8644 33.3075 76.9943 33.3075C78.8037 32.5316 79.0629 30.851 79.9682 29.2991C79.5808 29.2991 79.3215 29.1698 79.0629 29.1698C78.8037 28.2651 79.9681 28.7812 80.2262 28.6519L81.3907 26.3247H82.6833L81.7781 28.6519C82.0361 28.7812 82.4247 28.6519 82.8115 28.6519C82.8115 28.9111 82.8115 29.2985 82.5546 29.429H82.6839C82.4259 29.429 82.0373 29.429 81.3913 29.2991L79.7101 33.0494C79.7101 33.4368 79.4509 33.9541 79.9682 34.2133C81.0027 34.3427 81.5188 33.3081 82.0367 32.5322H82.942C81.9074 34.3427 81.1315 35.118 79.8388 35.118C79.3215 35.1168 78.2876 34.7289 78.1582 34.2122ZM37.8163 33.0483C39.3675 32.2723 39.8842 30.7211 40.6602 29.4279C39.2376 29.0393 37.6869 31.2372 37.299 32.789C37.299 32.919 37.5576 33.1776 37.8163 33.0483ZM62.1241 32.1436C62.1241 32.531 61.7355 33.0483 62.1241 33.4357C62.2534 33.6937 62.5115 33.5656 62.642 33.4357C63.6765 32.1436 64.1926 31.2378 64.4513 29.6865C64.4513 29.4284 64.1932 29.2979 64.0639 29.4284C62.9006 30.0739 62.642 30.9797 62.1241 32.1436ZM47.5136 33.0483C49.1942 32.4017 49.5828 30.8504 50.3581 29.5572C48.935 29.2985 47.7723 31.2378 47.2544 32.531C47.1257 32.789 47.2544 33.1776 47.5136 33.0483Z" fill="white"/>
</g>
<defs>
<clipPath id="clip0_7_44">
<rect width="111" height="93" fill="white"/>
</clipPath>
</defs>
</svg>
