<svg width="153" height="65" viewBox="0 0 153 65" fill="none" xmlns="http://www.w3.org/2000/svg">
<g clip-path="url(#clip0_7_65)">
<path fill-rule="evenodd" clip-rule="evenodd" d="M44.7394 64.6658H28.2483V41.1461H17.5689V64.6658H0.671875V3.9725H17.5689V26.6143H28.2483V3.9725H44.7394V64.6658ZM120.371 64.9371C137.268 64.9371 151.055 50.879 151.055 33.7785C151.055 16.4086 137.268 2.95898 120.371 2.95898C103.271 2.95898 94.6195 15.3942 92.5247 20.4636C92.5247 12.9612 85.0214 3.9725 76.303 3.9725H48.119V64.6658H74.3438C85.0214 64.6658 92.5247 55.5415 92.5247 47.5663C94.8889 52.5001 103.271 64.9371 120.371 64.9371ZM72.248 40.2665C74.681 40.2665 76.6411 42.6316 76.6411 45.3358C76.6411 48.1748 74.6801 50.5399 72.248 50.5399H63.8669V40.2665H72.248ZM72.248 17.4899C74.681 17.4899 76.6411 19.8551 76.6411 22.5593C76.6411 25.2635 74.6801 27.6287 72.248 27.6287H63.8669V17.4899H72.248ZM83.3325 33.7785C85.2926 33.6438 88.4697 31.4133 89.6857 30.0617C89.212 31.6837 89.212 36.82 89.6857 38.4428C88.3332 36.4818 85.2926 34.1166 83.3325 33.7785ZM104.959 33.7785C104.959 25.2626 111.855 18.3687 120.37 18.3687C128.885 18.3687 135.779 25.2626 135.779 33.7785C135.779 42.3622 128.885 49.257 120.37 49.257C111.855 49.257 104.959 42.3622 104.959 33.7785ZM120.371 45.9452C126.926 45.9452 132.469 40.5377 132.469 33.7785C132.469 27.0202 126.926 21.6805 120.371 21.6805C113.611 21.6805 108.204 27.0202 108.204 33.7785C108.197 35.3781 108.507 36.9633 109.116 38.4424C109.725 39.9216 110.621 41.2655 111.752 42.3967C112.884 43.5278 114.227 44.4237 115.707 45.0328C117.186 45.6418 118.771 45.9519 120.371 45.9452ZM143.948 4.78527C143.948 2.5566 145.626 0.869488 147.789 0.869488C149.917 0.869488 151.603 2.5566 151.603 4.78527C151.603 7.05677 149.916 8.73229 147.789 8.73229C145.626 8.73229 143.948 7.05677 143.948 4.78527ZM147.789 9.51295C150.356 9.51295 152.55 7.51713 152.55 4.78527C152.55 2.07483 150.356 0.078125 147.789 0.078125C145.193 0.078125 142.995 2.07483 142.995 4.78527C142.995 7.51624 145.193 9.51295 147.789 9.51295ZM146.787 5.15731H147.736L149.172 7.51625H150.097L148.55 5.12073C149.345 5.02349 149.962 4.59881 149.962 3.62098C149.962 2.55661 149.324 2.07483 148.036 2.07483H145.966V7.51625H146.787V5.15731ZM146.787 4.45963V2.77965H147.91C148.486 2.77965 149.098 2.89831 149.098 3.57548C149.098 4.41323 148.472 4.45963 147.774 4.45963H146.787Z" fill="white"/>
</g>
<defs>
<clipPath id="clip0_7_65">
<rect width="153" height="65" fill="white"/>
</clipPath>
</defs>
</svg>
