<svg width="183" height="33" viewBox="0 0 183 33" fill="none" xmlns="http://www.w3.org/2000/svg">
<g clip-path="url(#clip0_7_67)">
<path fill-rule="evenodd" clip-rule="evenodd" d="M181.925 28.4091C181.925 28.1467 181.808 27.8707 181.576 27.739C181.342 27.6005 181.081 27.5869 180.818 27.5869H179.464V30.6954H179.843V29.2616H180.542L181.43 30.6954H181.882L180.942 29.2616C181.496 29.246 181.925 29.0207 181.925 28.4091ZM180.425 28.9622H179.842V27.8629H180.73C181.116 27.8629 181.539 27.9214 181.539 28.4023C181.54 29.0353 180.861 28.9622 180.425 28.9622ZM164.194 13.3803L169.88 7.30844C170.21 6.86268 170.374 6.55056 170.374 6.28331C170.374 5.83755 169.991 5.65905 168.785 5.65905H167.35V1.82576H182.88V5.65905H180.84C178.483 5.65905 178.045 6.01507 174.757 10.1605L165.761 19.8754V25.8039C165.761 27.3206 166.527 27.8541 168.72 27.8541H172.116V31.5528H150.364V27.8541H153.76C155.951 27.8541 156.718 27.3206 156.718 25.8039V19.8754L146.123 8.15411C144.372 6.10481 144.614 5.65905 139.739 5.65905V1.82576H159.41V5.65905H158.01C156.585 5.65905 155.981 5.92631 155.981 6.46083C155.981 6.90756 156.419 7.26357 156.693 7.61959L162.054 13.4622C162.691 14.1245 163.468 14.2103 164.194 13.3803ZM32.2065 1.82478H36.9518V12.5209H32.5693C32.1811 10.3829 30.8429 9.55087 29.6227 8.42917C27.4212 6.4062 22.6535 4.72169 18.6436 4.72169C13.4682 4.72169 9.10039 6.32719 9.10039 8.68765C9.10039 15.2403 38.6987 10.0259 38.6987 22.4153C38.6987 28.8773 32.3587 32.4872 20.9729 32.4872C17.0313 32.4872 11.0668 31.2641 7.54756 29.3953C6.44439 28.7583 5.97621 29.998 5.76942 31.5518H0.904159V20.4987H5.30513C6.27565 23.3068 7.61292 23.8852 8.84289 25.0001C10.977 26.9616 16.0569 28.3886 20.7154 28.3428C27.7392 28.2735 30.1543 26.7383 30.1543 24.5095C30.1543 22.2817 27.7655 21.7462 20.0687 20.5436L13.5336 19.4735C6.1586 18.3587 0.789062 16.7103 0.789062 10.8277C0.789062 4.7217 7.5817 0.888399 18.3218 0.888399C22.8476 0.888399 26.6341 1.49315 30.2684 3.54733C31.275 4.20182 32.2192 4.27985 32.2065 1.82478ZM124.814 19.733L124.908 7.84491C124.908 6.28525 124.096 5.75074 121.778 5.75074H119.054V2.05204H136.386V5.75074H134.127C131.807 5.75074 130.995 6.28623 130.995 7.84491V31.7781L124.211 31.7245L102.242 10.9203V26.0292C102.242 27.5449 103.053 28.1233 105.372 28.1233H108.388V31.7781H90.3868V28.1233H93.3695C95.688 28.1233 96.4995 27.5439 96.4995 26.0292V7.84491C96.4995 6.28525 95.688 5.75074 93.3695 5.75074H90.3868V2.05204H105.95L124.814 19.733ZM66.7559 0.664062C52.9424 0.664062 44.2955 6.771 44.2955 16.5747C44.2955 26.2028 52.8224 32.2629 66.3345 32.2629C80.6865 32.2629 89.0349 26.2915 89.0349 16.085C89.0358 6.90463 80.0271 0.664062 66.7559 0.664062ZM66.4418 28.3867C58.7957 28.3867 54.4006 23.974 54.4006 16.3523C54.4006 8.91004 58.9869 4.49736 66.8242 4.49736C74.3425 4.49736 78.7376 8.99977 78.7376 16.6654C78.7376 24.1525 74.2781 28.3867 66.4418 28.3867Z" fill="white"/>
</g>
<defs>
<clipPath id="clip0_7_67">
<rect width="183" height="33" fill="white"/>
</clipPath>
</defs>
</svg>
