<svg width="202" height="99" viewBox="0 0 202 99" fill="none" xmlns="http://www.w3.org/2000/svg">
<g clip-path="url(#clip0_7_69)">
<path d="M8.78695 67.0824C3.4938 67.0824 0.678459 63.6919 0.646666 57.2765L0.578125 42.4968C0.578125 42.3327 0.701169 42.2001 0.86096 42.1774L5.47427 41.7348C5.56098 41.7257 5.64769 41.753 5.71623 41.8215C5.78002 41.8717 5.8209 41.9538 5.8209 42.0494L5.88964 56.6466C5.90306 59.8544 7.12152 61.488 9.5217 61.488C9.70874 61.488 9.90053 61.479 10.106 61.4515C12.9168 61.1778 14.3357 59.2708 14.3221 55.7659L14.2537 41.1687C14.2537 41.0001 14.377 40.8721 14.5413 40.8539L19.1682 40.4022C19.264 40.3933 19.3507 40.4203 19.4193 40.4798C19.4833 40.5391 19.5196 40.6303 19.5196 40.717L19.5882 55.4874C19.6063 59.4529 18.4062 66.2151 10.1382 67.0182C9.66745 67.0593 9.21574 67.0824 8.78695 67.0824ZM24.5384 64.9743C24.4653 64.9743 24.3833 64.9423 24.3241 64.8831C24.2648 64.8329 24.2283 64.7462 24.2283 64.6552L24.1096 40.2841C24.1096 40.1107 24.2374 39.9738 24.4017 39.9647L29.3206 39.627C29.4257 39.6179 29.5305 39.6633 29.5898 39.7457L40.0117 53.503L39.9479 39.1798C39.9453 39.0994 39.9745 39.0212 40.0292 38.9622C40.0839 38.9032 40.1597 38.8683 40.2401 38.865L44.219 38.5819C44.3057 38.5819 44.3924 38.6094 44.4564 38.6734C44.5249 38.7326 44.5567 38.8103 44.5567 38.9015L44.6707 63.2726C44.6734 63.3535 44.6444 63.4322 44.5898 63.4919C44.5352 63.5516 44.4593 63.5875 44.3785 63.592L40.2948 63.8748C40.1899 63.8748 40.0803 63.8385 40.021 63.7606L28.7642 48.8443L28.8373 64.3814C28.8373 64.5499 28.7095 64.6824 28.5451 64.6915L24.5615 64.9745L24.5384 64.9743ZM50.5068 63.2951C50.4292 63.2951 50.3472 63.2633 50.2921 63.2084C50.2283 63.1491 50.1874 63.0668 50.1874 62.9848L50.0503 38.682C50.0503 38.5134 50.1781 38.3674 50.347 38.3629L55.6401 38.1027C55.7314 38.0982 55.8135 38.1302 55.8773 38.1895C55.9413 38.2396 55.9777 38.3263 55.9777 38.413L56.0964 62.7158C56.0964 62.8843 55.9593 63.0215 55.7906 63.0352L50.5249 63.2953L50.5068 63.2951ZM70.0183 62.4738C69.9562 62.4735 69.8956 62.4552 69.8437 62.4212C69.7919 62.3872 69.7509 62.3388 69.7259 62.282L59.3636 38.285C59.3269 38.1892 59.3362 38.0707 59.3954 37.984C59.4501 37.8973 59.5414 37.8424 59.6508 37.8424L65.7014 37.6599C65.8521 37.6645 65.9525 37.7373 66.0026 37.8515L72.7424 53.5162L79.7102 37.4316C79.7559 37.3222 79.8653 37.2445 79.9838 37.2398L84.7614 37.1029C84.8847 37.1029 84.9712 37.1487 85.0306 37.2398C85.099 37.3356 85.1035 37.4407 85.0581 37.541L74.4398 62.1588C74.3939 62.273 74.28 62.3413 74.1567 62.3456L70.0226 62.4736L70.0183 62.4738ZM88.763 62.013C88.5896 62.013 88.4436 61.8762 88.4436 61.7027L88.3022 37.4C88.3022 37.3178 88.334 37.2359 88.3935 37.1719C88.4535 37.1139 88.5336 37.0811 88.6171 37.0804L108.097 37.0668C108.27 37.0668 108.412 37.2039 108.412 37.3771L108.434 42.1089C108.434 42.1913 108.402 42.278 108.343 42.3325C108.279 42.3917 108.201 42.4237 108.115 42.4237L94.5494 42.4373L94.5673 46.6444L103.684 46.6307C103.858 46.6307 103.999 46.7812 103.999 46.9503L104.022 51.7139C104.022 51.8052 103.99 51.8873 103.931 51.9466C103.871 52.0058 103.789 52.0333 103.707 52.0333L94.5948 52.0469L94.6084 56.6055L108.343 56.5872C108.516 56.5872 108.658 56.7377 108.658 56.9113L108.681 61.6703C108.681 61.7618 108.649 61.8438 108.589 61.8939C108.53 61.9579 108.448 61.9897 108.366 61.9897L88.7676 62.0128L88.763 62.013ZM120.275 47.7716L124.597 47.9039C124.793 47.9087 124.98 47.9087 125.158 47.9087C126.75 47.9087 127.681 47.6851 128.183 47.1739C128.589 46.7678 128.767 46.1334 128.767 45.1115C128.754 43.957 128.539 42.9074 125.906 42.8346L120.257 42.6611L120.275 47.7716ZM135.689 62.7521H135.675L129.379 62.5605C129.269 62.5605 129.173 62.5013 129.119 62.4008L123.784 53.2291L120.335 53.1242L120.376 61.9629C120.376 62.0496 120.344 62.1313 120.275 62.1908C120.225 62.25 120.139 62.2775 120.047 62.2868L114.736 62.1225C114.652 62.1211 114.573 62.0867 114.515 62.0268C114.457 61.967 114.425 61.8865 114.425 61.8031L114.312 37.432C114.312 37.3453 114.348 37.2631 114.412 37.2039C114.441 37.1733 114.477 37.1494 114.516 37.1337C114.555 37.1179 114.598 37.1108 114.64 37.1126L128.014 37.5142C132.449 37.651 135.005 40.4755 135.027 45.2758C135.05 49.8982 132.573 51.8238 130.332 52.6268L135.958 62.2775C135.987 62.3258 136.003 62.3811 136.003 62.4374C136.003 62.4937 135.987 62.549 135.958 62.5973C135.909 62.6927 135.808 62.7521 135.689 62.7521ZM149.529 64.1711C149.188 64.1715 148.847 64.1609 148.507 64.1393C144.738 63.9433 140.804 61.5838 139.696 60.8629C139.6 60.813 139.545 60.7124 139.545 60.6028L139.518 54.9814C139.518 54.9244 139.535 54.8686 139.564 54.82C139.594 54.7713 139.636 54.7316 139.687 54.705C139.737 54.6784 139.794 54.6658 139.851 54.6687C139.908 54.6716 139.963 54.6897 140.01 54.7213C143.419 56.9982 146.677 58.4675 148.516 58.5724C150.259 58.6636 151.413 58.4037 151.993 57.824C152.276 57.5409 152.408 57.1805 152.408 56.7151C152.408 56.1674 151.847 55.6338 150.642 55.0359C149.931 54.6709 149.087 54.3241 148.187 53.9545C144.391 52.394 139.184 50.263 139.162 44.5091C139.152 42.5926 139.755 41.0003 140.96 39.7863C142.511 38.2305 145.003 37.4363 147.795 37.5868C151.08 37.7693 154.995 39.4488 156.83 40.5393C156.925 40.594 156.98 40.7034 156.98 40.813L157.012 46.2567C157.012 46.3754 156.948 46.4848 156.843 46.5352C156.794 46.564 156.738 46.5784 156.68 46.5768C156.623 46.5752 156.567 46.5576 156.52 46.5261C155.388 45.7824 151.432 43.3596 147.791 43.1632C146.499 43.0947 145.856 43.4368 145.577 43.7198C145.304 43.989 145.267 44.2675 145.267 44.4133C145.267 45.0021 145.851 45.5999 147.047 46.243C147.763 46.6264 148.68 47.0143 149.652 47.4204C153.394 48.9991 158.518 51.153 158.541 56.3274C158.555 58.6364 157.889 60.4752 156.552 61.8124C155 63.3773 152.637 64.1711 149.529 64.1711ZM169.022 54.3561L173.43 54.6754L171.262 48.7117L169.022 54.3561ZM182.775 65.7136C182.771 65.7136 182.766 65.7136 182.752 65.7091L177.509 65.3257C177.382 65.3123 177.277 65.239 177.236 65.1158L175.47 60.2105L166.941 59.5809L165.134 64.194C165.111 64.2572 165.067 64.311 165.011 64.3473C164.954 64.3836 164.887 64.4004 164.819 64.3951L160.426 64.0711C160.33 64.062 160.224 64.0071 160.174 63.9295C160.149 63.8862 160.135 63.838 160.131 63.7882C160.127 63.7385 160.134 63.6885 160.152 63.6419L169.569 39.7591C169.595 39.6958 169.639 39.642 169.696 39.6052C169.754 39.5684 169.821 39.5504 169.889 39.5537L173.562 39.8274C173.624 39.831 173.683 39.8529 173.732 39.8904C173.78 39.9278 173.817 39.979 173.836 40.0374L183.067 65.289C183.117 65.3848 183.094 65.4989 183.031 65.5811C182.971 65.6678 182.871 65.7136 182.775 65.7136ZM201.593 67.4519H201.561L186.448 66.0605C186.37 66.0519 186.298 66.0143 186.245 65.9552C186.193 65.8961 186.165 65.8196 186.166 65.7407L186.019 41.0824C186.019 40.9866 186.051 40.9045 186.12 40.8405C186.188 40.7821 186.277 40.7527 186.366 40.7585L190.934 41.183C191.013 41.1896 191.086 41.2257 191.139 41.284C191.193 41.3424 191.222 41.4187 191.222 41.4978L191.313 61.0324L201.597 61.9812C201.757 61.9951 201.881 62.1317 201.885 62.3006L201.904 67.133C201.908 67.2288 201.872 67.3064 201.807 67.3702C201.749 67.4234 201.672 67.4526 201.593 67.4519ZM112.121 2.62945C109.557 2.00433 106.741 2.47895 106.819 2.58858C106.545 2.49733 106.02 2.31028 105.724 2.37408C105.683 2.37862 105.66 2.3877 105.628 2.40153C105.683 2.42899 105.747 2.45624 105.806 2.47895C105.628 2.54749 105.551 2.45604 105.4 2.42404C105.495 2.55637 105.477 2.53366 105.395 2.67054C105.4 2.6887 105.409 2.70687 105.423 2.72979C105.833 2.82558 106.235 2.98558 106.814 2.92158V2.88958C106.691 2.76654 106.408 2.74362 106.262 2.62945H106.207V2.6022C106.586 2.67074 106.906 2.83941 107.165 3.01283C107.202 2.98083 107.239 2.95812 107.284 2.93541C107.184 3.09045 107.079 3.13174 107.134 3.29133C106.513 3.19554 106.057 2.97175 105.815 3.65633C105.883 3.71558 105.952 3.7705 106.02 3.82975C105.97 3.84791 105.92 3.86175 105.87 3.87991C105.86 3.93483 105.847 3.98954 105.838 4.04879C106.084 4.27692 106.225 4.39583 106.536 4.51413C106.549 4.62829 106.568 4.75608 106.586 4.87933C106.659 4.94333 106.659 4.92971 106.764 4.91133C106.896 5.03913 106.805 5.13492 106.873 5.21708C107.042 5.43592 107.686 5.7553 107.827 5.95163C107.877 6.01109 107.836 6.13867 107.945 6.20721C108.174 6.36246 108.443 6.45371 108.644 6.63167C108.717 6.67255 108.662 6.63621 108.644 6.70909C109.1 6.92338 109.803 6.90542 110.186 7.13809C110.263 7.21551 110.223 7.16555 110.218 7.27497C110.615 7.38439 111.012 7.49401 111.414 7.60343C111.441 7.59806 111.469 7.59039 111.495 7.58051C111.523 7.47564 111.514 7.47089 111.473 7.37509C111.71 7.24276 111.769 6.98284 111.943 6.80013C111.861 6.64963 111.829 6.63601 111.856 6.42584C112.184 6.38022 112.285 6.20226 112.559 6.13826C112.527 5.97867 112.545 5.94193 112.413 5.87813C112.49 5.81888 112.472 5.84634 112.591 5.88268C112.623 5.85522 112.645 5.82343 112.677 5.79597C112.591 5.72309 112.499 5.64092 112.413 5.56351H112.358V5.53151C112.513 5.57734 112.677 5.60459 112.851 5.57734C112.873 5.56805 112.896 5.56371 112.915 5.54534C112.874 5.50425 112.837 5.45409 112.796 5.40392C112.81 5.3903 112.819 5.38555 112.819 5.37646C113.047 5.49951 113.184 5.50859 113.522 5.51334C113.544 5.43571 113.567 5.36738 113.581 5.28975C113.631 5.28521 113.677 5.27613 113.731 5.27138C113.677 5.33992 113.631 5.4128 113.581 5.48588C113.59 5.50859 113.604 5.52696 113.608 5.54534C114.293 5.70038 114.763 5.43571 115.415 5.3263V5.15742C116.195 4.93384 117.309 5.40846 118.071 5.34901C118.295 5.33538 115.283 3.40549 112.121 2.62945ZM77.5836 66.8954C77.9304 67.4701 78.25 68.2594 78.6974 68.7249C79.6417 69.6923 81.1886 70.2171 81.7817 71.4581C82.0691 71.7411 82.3474 72.0196 82.6304 72.2932C82.6166 72.4243 82.5999 72.5552 82.5803 72.6856C82.6304 73.0733 82.8082 73.6208 82.7444 74.0408C82.7217 74.2276 82.6532 74.4652 82.667 74.675C82.6988 74.7982 82.7308 74.9301 82.7582 75.0627C82.6897 75.4551 82.5256 75.866 82.5165 76.3495C82.3978 76.3996 82.4709 76.372 82.3111 76.3495C82.3058 76.4896 82.2982 76.6296 82.2882 76.7694H82.4296C82.3978 77.0295 82.3612 77.294 82.3292 77.5496C82.3612 77.8097 82.3932 78.0742 82.4203 78.3297C82.3839 78.4346 82.2196 78.4757 82.1924 78.6307C82.2151 78.7265 82.238 78.836 82.2562 78.9231C82.206 79.4567 82.1056 79.9175 81.9551 80.2185C81.7956 80.547 81.9595 80.8618 81.6723 81.0536C81.7272 81.4642 81.8594 81.6835 81.8319 82.1305C81.7177 82.1672 81.7679 82.1579 81.6265 82.1579C81.5627 83.139 82.0507 83.6728 81.7452 84.394C81.7908 84.4167 81.9048 84.6993 81.8594 84.8135C81.6265 85.457 81.3298 86.073 81.2751 86.8307C81.2477 86.8123 81.2202 86.7896 81.1884 86.7714C81.1884 86.899 81.1929 87.0316 81.1929 87.1591C81.1062 87.1273 81.0195 87.0953 80.9328 87.0681C80.9239 87.0724 80.9146 87.0865 80.9054 87.0956C80.9603 87.6336 81.2202 88.2135 81.4392 88.6652C81.4165 89.2858 81.0515 89.4774 81.5166 90.1708V90.2943C81.4665 90.2625 81.4165 90.235 81.3707 90.1983C81.2749 90.4859 81.4302 90.7873 81.348 91.1153C81.4483 91.2386 81.5625 91.2658 81.7311 91.3253C81.7539 91.3119 81.7859 91.3028 81.8131 91.2935C81.8817 90.9834 81.8451 90.6137 81.6899 90.3766C81.7082 90.3583 81.7312 90.3449 81.7493 90.3217C81.8131 90.3535 81.8864 90.3766 81.9502 90.4084H81.9774C81.964 90.2806 82.0324 90.3034 81.9227 90.2943C81.9409 90.2575 81.9591 90.2167 81.9774 90.1708C82.0231 90.235 82.078 90.2897 82.1282 90.3535C82.0962 90.3901 82.0687 90.4314 82.0324 90.4722C82.1783 90.568 82.2514 90.8967 82.0732 90.9694C82.1236 91.0152 82.1692 91.0515 82.2194 91.0881C82.1372 91.5901 82.2283 91.9368 82.2283 92.4709H82.1736C82.1325 92.3111 82.014 91.8682 82.0823 91.8272C81.9684 91.6767 81.8587 91.5765 81.6672 91.4985C81.5804 91.631 81.5257 91.8317 81.5028 92.0326C81.5804 92.1057 81.6535 92.1876 81.7357 92.2696C81.7268 92.4067 81.7173 92.5392 81.7082 92.6806H81.5076V92.7077C81.5396 92.7578 81.5668 92.8218 81.5941 92.8811C81.5164 92.9407 81.439 93.0045 81.3661 93.0592V93.1777C81.4299 93.2186 81.5028 93.2552 81.5666 93.2919C81.6077 93.2552 81.6442 93.2188 81.6855 93.1734C81.8179 93.2919 82.0823 93.3328 82.2058 93.4701C82.1692 93.4562 82.1327 93.4515 82.0918 93.4426C82.1327 93.5337 82.1236 93.4928 82.1783 93.5568C82.1509 93.6569 82.1236 93.7482 82.0962 93.8487C81.9913 93.7895 81.9774 93.7482 81.804 93.7302V93.7665C81.8315 93.794 81.859 93.8262 81.8953 93.8487C81.8406 93.8805 81.7949 93.9129 81.7493 93.9398C81.9044 94.2228 81.9409 94.6563 82.1325 94.9074C82.2696 94.9714 82.4017 95.044 82.5388 95.1173C82.4637 95.0877 82.3856 95.0662 82.3059 95.0533V95.0808C82.3379 95.195 82.361 95.318 82.3928 95.432C82.443 95.4505 82.4929 95.4733 82.5388 95.4914C82.5799 95.4047 82.6162 95.318 82.6573 95.2268C82.6847 95.2998 82.7122 95.3634 82.7442 95.432H82.6255C82.6153 95.4416 82.6062 95.4524 82.5982 95.464C82.7122 95.6328 82.7349 95.715 82.7487 95.9568C82.8629 95.9202 82.9771 95.8837 83.0956 95.8426C83.1687 95.9109 83.1505 95.9202 83.269 95.9568L83.2095 96.0757C83.1144 96.0444 83.0185 96.0155 82.922 95.989C82.9083 96.0069 82.9038 96.0251 82.8949 96.0435C82.995 96.2303 83.1505 96.3449 83.3328 96.4543C83.3144 96.4176 83.2962 96.3719 83.2735 96.3358C83.4422 96.4725 83.5972 96.6093 83.7663 96.746V96.7737C83.6111 96.7095 83.4604 96.6411 83.3008 96.5726C83.5017 96.8191 83.6612 96.9013 83.885 96.9516C83.8762 97.0245 83.8941 96.9607 83.8576 97.0336C84.0812 97.2617 85.0211 97.8821 85.2812 97.8185C85.272 97.937 85.2901 97.8503 85.2538 97.9416C85.5276 98.2019 86.4173 98.5349 86.8509 98.6398V98.6123C86.7823 98.5394 86.7093 98.4756 86.6455 98.4118C86.9605 98.512 87.1614 98.4253 87.3711 98.6123V98.4938C87.5035 98.5122 87.6403 98.5349 87.7772 98.5487H87.8047C87.8135 98.5351 87.823 98.5122 87.8319 98.4938V98.4121C87.0379 98.3115 86.7826 97.6224 86.1434 97.4444C86.1754 97.4079 86.2074 97.3668 86.2348 97.3303C86.0525 97.1341 85.8151 97.1478 85.6553 96.9516C85.6371 96.9395 85.6171 96.9303 85.5961 96.9242C85.6233 96.9013 85.6553 96.8876 85.6828 96.8693C85.8288 96.9242 85.9749 96.9834 86.1116 97.0336V97.0109C85.8837 96.7142 85.5094 96.509 85.4683 96.016C85.4819 95.9976 85.491 95.9797 85.5046 95.9568C85.637 95.925 85.7738 95.9068 85.9062 95.8657C86.0158 95.7835 85.9793 95.6145 85.9563 95.4002C86.1434 95.2771 86.536 95.195 86.682 95.0259C86.7276 94.9573 86.7276 94.7705 86.7049 94.583C86.2303 94.2686 85.5323 94.1728 85.6871 93.4699C85.9064 93.2965 86.2076 93.237 86.4952 93.3557H86.618C86.5771 93.2415 86.618 93.287 86.527 93.2325C86.5817 93.109 86.6089 93.1274 86.7276 93.0908C86.7505 92.9081 86.6913 92.7485 86.6411 92.5888C86.7596 92.4108 86.8647 92.3332 87.1614 92.3195C87.0883 92.1829 86.9149 92.1552 86.81 92.0594C86.7916 92.0503 86.7689 92.0365 86.7505 92.0276C86.8189 92 86.8829 91.9636 86.9512 91.9364C87.1019 92.0412 87.1521 92.1052 87.2435 92.2603C87.3166 92.2737 87.3986 92.283 87.4808 92.2878C87.5035 92.2603 87.5355 92.2374 87.5627 92.201C87.5627 92.0231 87.5491 91.9407 87.476 91.8497C87.4531 91.8267 87.4349 91.7947 87.4168 91.763C87.3101 91.7711 87.2036 91.7817 87.0974 91.7947C87.1475 91.8313 87.193 91.8722 87.2388 91.9089V91.9364C87.175 91.923 87.1063 91.8996 87.0379 91.8815C86.951 91.8084 86.9467 91.7307 86.7503 91.6762C86.65 91.4981 86.6453 91.1605 86.5678 90.9324C86.7871 90.6677 87.2844 91.2152 87.59 91.2927C87.8195 91.2792 88.0492 91.27 88.2791 91.2652L88.4251 90.9324C88.3885 90.9551 88.3472 90.9733 88.3109 90.9917C88.2698 90.9551 88.2287 90.9186 88.1922 90.8775C88.3293 90.6766 88.5297 90.453 88.4158 90.17C88.4568 90.1884 88.4979 90.2067 88.5347 90.2342H88.5621C88.5457 90.1737 88.5259 90.1143 88.5027 90.056C88.9222 90.2249 90.7794 90.49 91.2906 90.1977C91.4047 90.1384 91.8474 89.5956 92.0115 89.4677V89.0525C91.7652 88.9658 91.6465 88.9521 91.6283 88.6371C91.7057 88.5731 91.7788 88.5004 91.8562 88.4271C91.7377 87.9114 91.2082 87.8567 90.9753 87.4509C91.0166 87.4052 91.0577 87.3551 91.0942 87.3047C91.1217 87.2913 91.1487 87.282 91.1807 87.2683C91.2582 87.3959 91.3407 87.4327 91.3862 87.6012C91.5687 87.6379 91.7514 87.6742 91.9384 87.7246C92.1027 87.8338 92.3036 88.1807 92.5224 88.2219C92.6959 88.2583 92.8284 88.1443 93.02 88.2219C93.1571 88.2903 93.2527 88.4589 93.4853 88.4271C94.0741 88.3631 94.1788 88.0849 94.5256 87.8431C94.731 87.7564 94.9319 87.6654 95.1371 87.5787C95.2831 87.3821 95.4381 87.1862 95.5934 86.9899C95.9813 86.821 96.369 86.6523 96.7522 86.4876C97.2132 86.182 97.4549 85.6345 97.8792 85.3056C98.4133 84.8905 99.0884 84.8178 99.2985 84.0645C99.2566 84.0599 99.2153 84.0508 99.1753 84.0374C99.2574 83.7451 99.2756 83.3667 99.4352 82.9649C99.5584 82.6501 101.607 81.6145 102.136 81.7696C102.251 81.8563 102.364 81.9523 102.483 82.034C102.502 81.9703 102.529 81.9015 102.543 81.8381C102.502 81.8243 102.465 81.815 102.424 81.7971V81.7696C102.684 81.7056 102.949 81.3131 103.209 81.3998C103.3 81.3088 103.305 81.3449 103.209 81.2493V81.1626C103.761 81.1583 104.797 81.3771 105.313 81.6236C105.363 81.5458 105.358 81.5458 105.459 81.5095C105.431 81.0487 105.983 81.2264 106.325 81.0664C106.549 80.898 106.567 80.3548 106.905 80.1905C107.452 79.9169 107.426 79.7435 107.808 79.4879C107.977 79.3828 108.137 79.3919 108.242 79.2278C108.634 78.5981 108.37 78.3155 109.173 78.0232C109.306 77.5896 109.41 77.2473 109.661 76.9327C109.79 76.7901 109.916 76.6455 110.04 76.4989C110.177 76.1112 110.09 75.7871 110.241 75.4403C110.401 75.0573 110.734 74.8108 110.766 74.3224C111.122 74.1355 111.436 74.1991 111.783 73.953C112.28 73.524 112.773 73.0857 113.271 72.6522C113.444 72.6161 113.622 72.5839 113.795 72.5475C114.019 72.3741 114.243 72.2007 114.466 72.0227C115.269 71.5025 115.926 71.0464 116.241 70.0332C116.246 69.837 116.26 69.6407 116.269 69.4398C116.355 69.0703 116.789 66.6701 116.784 66.6701C94.2752 66.6214 77.5836 66.8954 77.5836 66.8954ZM97.5879 4.04425C97.9529 4.09441 98.4366 4.14933 98.8381 4.32708C99.2444 4.50958 99.3448 4.76971 99.7826 4.83825C99.6871 4.90679 99.6321 4.8655 99.4907 4.83371C99.5956 5.01167 99.705 5.10746 99.9561 5.13925C99.9152 5.16196 99.8784 5.18034 99.8378 5.19871C99.9517 5.30379 100.025 5.38575 100.185 5.45429H100.303C100.267 5.33559 100.289 5.36759 100.194 5.30813V5.28542C101.034 5.55917 101.804 6.1523 102.772 6.3028C102.817 6.17521 102.754 6.24355 102.89 6.22084V6.19359C102.607 5.81496 101.937 5.40888 101.476 5.21729C101.462 5.18529 101.458 5.14421 101.448 5.10767C101.631 5.20346 101.813 5.29925 101.996 5.39959V5.28542C102.521 5.59096 103.123 5.96526 103.648 6.26646C103.698 6.25738 103.748 6.2483 103.794 6.24375H103.849C103.849 6.23921 103.853 6.22538 103.853 6.2163C103.666 6.09325 103.57 6.11163 103.447 5.92417C103.529 5.96071 103.602 5.98817 103.684 6.01542C103.693 6.02017 103.703 6.02017 103.716 6.02017C103.721 5.91529 103.698 5.89692 103.625 5.79659C103.634 5.77842 103.648 5.7555 103.657 5.74188C103.726 5.7875 103.707 5.76913 103.744 5.84675C103.922 5.83313 103.867 5.81475 103.949 5.71442C103.995 5.82859 103.999 5.82859 104.091 5.88784H104.122C104.104 5.84675 104.082 5.81042 104.063 5.77821H104.268C104.268 5.7553 104.268 5.74188 104.273 5.71896C104.1 5.61409 103.954 5.49538 103.721 5.42684C103.707 5.40867 103.703 5.3905 103.689 5.37213C103.749 5.36759 103.808 5.3585 103.867 5.35396V5.32217C103.707 5.18508 103.192 4.77446 102.822 4.82937C102.831 4.6605 102.74 4.43691 102.539 4.382H102.772C102.786 4.35929 102.79 4.34546 102.804 4.32275C102.765 4.28508 102.726 4.24852 102.685 4.21312C103.068 4.24492 103.402 4.54613 103.735 4.5645C103.616 4.94333 104.364 5.05275 104.624 5.25796C104.821 5.23071 104.807 5.16671 104.949 5.14834C104.921 5.13017 104.894 5.10746 104.866 5.08909C104.908 5.00238 104.88 5.03892 104.953 4.98421C105.104 5.04346 105.245 5.09838 105.387 5.02075V5.13017C105.46 5.13471 105.524 5.13471 105.592 5.13471C105.565 5.09838 105.533 5.05729 105.506 5.02075C105.597 4.97492 105.514 5.00238 105.619 5.02529C105.656 5.01621 105.684 5.00713 105.711 5.00238C105.674 4.94313 105.638 4.88367 105.592 4.82917C105.857 4.89296 105.962 4.88388 106.176 4.83825C106.103 4.59629 105.779 4.49616 105.487 4.51413C105.446 4.44104 105.506 4.47779 105.569 4.44104C105.474 4.4365 105.378 4.42742 105.282 4.42742C105.181 4.38179 105.104 4.20383 104.789 4.19475C104.848 4.13529 104.798 4.16275 104.908 4.13983C104.808 4.04425 104.534 3.89808 104.356 3.90717C104.338 3.8892 104.319 3.87083 104.301 3.85246C104.338 3.8337 104.376 3.81689 104.415 3.80208C104.109 3.73829 104.032 3.65158 103.831 3.75646C103.653 3.61958 103.672 3.53287 103.371 3.50087C103.392 3.47466 103.411 3.44722 103.43 3.41871C103.197 3.35946 102.969 3.30021 102.736 3.2455V3.2135C102.795 3.19934 102.854 3.19015 102.914 3.18604C102.919 3.08116 102.928 3.11296 102.882 3.02645C103.101 3.08116 103.311 3.14062 103.526 3.19079C103.544 3.17696 103.562 3.15899 103.58 3.14062C103.453 3.00829 103.256 2.9352 103.06 2.93975C103.069 2.91683 103.083 2.88937 103.088 2.85779C103.197 2.88958 103.307 2.91704 103.407 2.93975C103.421 2.9352 103.43 2.92612 103.439 2.92158V2.83487C103.183 2.64308 103.124 2.63854 102.718 2.65691C102.809 2.53841 102.841 2.5702 103.01 2.55183C103.01 2.54274 103.01 2.53841 103.015 2.52458C102.713 2.30533 102.275 2.41041 101.97 2.23699C101.965 2.23699 101.7 1.9267 101.655 1.90379C101.436 1.78074 100.696 1.62549 100.555 1.62095C100.578 1.59349 100.596 1.56603 100.619 1.53878C100.336 1.41099 100.058 1.31974 99.7519 1.17832H99.9891V1.15128C99.8477 0.936779 98.5336 1.48428 98.2826 1.81295C98.1961 1.76257 98.8257 2.3012 98.6523 2.26899C98.634 2.29645 98.6112 2.32391 98.5929 2.34662H98.5336C98.6156 2.48824 99.2271 2.45604 99.373 2.46078C99.3823 2.4837 99.3914 2.49733 99.405 2.52024C99.2909 2.57495 99.2591 2.4837 99.1086 2.5157H99.0537C99.1356 2.72091 99.3183 2.67529 99.5143 2.60241C99.5419 2.67549 99.5694 2.74837 99.6057 2.82599C99.4734 2.77128 99.4003 2.77128 99.2271 2.76674C99.2865 2.96307 99.6377 2.99941 99.8842 3.02233C99.8931 2.98124 99.9069 2.94016 99.9162 2.90816C99.8204 2.88979 99.7197 2.86708 99.6286 2.85345C99.6421 2.79399 99.6513 2.73928 99.6606 2.68478C99.834 2.74403 99.9162 2.84437 100.149 2.88545C100.199 3.02707 100.245 3.17758 100.286 3.3192C99.8295 3.37391 99.373 3.42882 98.9123 3.47424C98.9034 3.49262 98.8942 3.51086 98.8848 3.52895C98.9762 3.62474 99.0766 3.71599 99.1678 3.81199V3.83945C98.8485 3.74366 98.5016 3.82108 98.2049 3.77566C97.5707 3.66603 97.0918 3.33282 96.4576 3.71145C96.471 3.73891 96.4846 3.75728 96.4894 3.79362C96.6708 4.12187 97.2229 3.99387 97.5879 4.04425ZM78.4688 24.5459C78.6788 24.7193 79.2994 24.3634 79.6006 24.3634C79.7329 24.5413 80.0112 25.2393 80.1753 25.2713C80.4126 25.8188 79.7466 26.0973 79.8149 26.517C79.8333 26.5307 79.8514 26.5354 79.8698 26.5445C79.9883 26.444 79.9699 26.4487 79.9381 26.3162C79.9563 26.298 79.9747 26.2935 79.9931 26.2844C80.0478 26.4394 79.9794 26.4074 80.139 26.4212C80.0294 26.5032 79.92 26.5854 79.8149 26.6677C79.7647 26.7863 79.8424 27.0693 79.8698 27.3247C79.9154 27.3521 79.9656 27.3705 80.0158 27.3887C80.0341 27.3523 80.0521 27.302 80.0707 27.2656C80.0796 27.2883 80.0889 27.302 80.1027 27.3249C79.9883 27.4665 79.9794 27.5303 79.8925 27.6763C79.9656 27.6899 79.9381 27.6763 80.0158 27.6443C80.0798 27.7493 80.1116 27.8086 80.0707 27.9638C80.0841 28.411 80.5453 28.411 80.3308 28.8811C80.4904 29.1228 81.0104 28.9678 81.1382 28.9814C81.1382 28.621 81.599 28.2467 81.7543 27.8908C81.9551 27.4436 81.7636 26.823 81.7636 26.2662C81.8183 26.248 81.8821 26.2253 81.9415 26.2024C81.8775 25.7961 81.8044 25.3764 81.7454 24.961C81.8914 23.3823 83.1552 22.9944 84.4193 22.6158C85.0127 22.4378 84.7889 21.9266 85.8841 22.1457C86.1576 21.6302 87.0749 21.726 87.6133 21.5982C87.6269 21.5753 87.6362 21.5526 87.6453 21.5389C87.5311 21.4613 87.5586 21.5024 87.4993 21.3655V21.3337C87.6453 21.2379 88.0879 21.1648 88.2611 21.1694C88.3204 21.0827 88.3662 21.0096 88.4118 20.9413C88.3204 20.7908 88.1106 20.7177 87.8825 20.7086V20.6721C88.0743 20.7086 88.2568 20.7358 88.4438 20.7633V20.996C88.4622 20.9823 88.526 20.3847 88.5442 20.0789C88.4802 20.0606 88.4211 20.0378 88.3662 20.024C88.2797 19.96 88.3478 20.0013 88.3388 19.8781C88.3299 19.7593 88.5442 19.4629 88.6398 19.3351C88.5533 19.2666 88.6309 18.7967 88.6445 18.6507C88.7851 18.5315 88.9235 18.4097 89.0597 18.2855C88.7267 18.7556 88.8956 18.7556 88.7861 19.3076C88.8726 19.3349 88.9595 19.3623 89.0461 19.3989C88.8772 19.5403 88.7038 19.6086 88.6034 19.8277C88.59 19.8418 88.5806 19.8592 88.576 19.8781C88.6309 19.9237 88.608 19.9191 88.7221 19.9373C88.8863 19.5859 89.5706 19.3487 89.8766 18.8557C89.6896 18.6643 89.7672 18.5502 89.7077 18.29C89.8401 18.4131 89.8948 18.518 90.114 18.5729C90.0773 18.6231 90.0318 18.6687 89.9953 18.7188V18.7418C90.447 18.8056 91.0585 18.217 91.2685 17.9021C91.2319 17.7882 91.2685 17.8474 91.1816 17.7834C91.1727 17.7607 91.1634 17.7471 91.1545 17.7242C91.6791 17.6604 92.432 17.8154 93.007 17.7516C92.9568 17.6922 92.9066 17.6375 92.861 17.5737C92.4184 17.6375 92.0259 17.4595 91.5924 17.56C92.1126 17.1494 93.6959 17.7242 94.3941 17.4597C94.4717 17.6468 94.6359 17.6331 94.9784 17.6468C95.0147 17.5875 95.0558 17.5326 95.0967 17.4733C95.0696 17.4323 95.0422 17.3775 95.0102 17.3319C94.9416 17.487 95.0011 17.4963 94.8324 17.4963C94.7548 17.4917 94.6726 17.4733 94.595 17.4643C94.5539 17.2863 94.6177 17.0536 94.3029 16.9989V16.9442C94.4439 16.909 94.5853 16.8756 94.7271 16.8439C94.686 16.7801 94.6452 16.7297 94.6086 16.6705C94.8093 16.4242 95.2199 16.2962 95.4072 16.1137C95.8678 16.2049 96.1644 16.1958 96.6163 15.945C96.6892 16.027 96.6754 16.0042 96.6754 16.1137C97.2412 16.0728 97.7844 16.1182 98.3821 15.9586C98.3546 15.8994 98.3272 15.8445 98.2999 15.7852C98.3685 15.7807 98.6699 15.8899 98.7653 15.9128C99.2126 16.004 100.079 15.9128 100.454 15.7897C100.467 15.8034 100.486 15.8261 100.504 15.849C100.368 15.8847 100.231 15.9181 100.093 15.9493C100.084 15.963 100.075 15.9859 100.066 16.004C100.221 16.036 100.381 16.0771 100.532 16.1089C99.9703 16.1956 99.4135 16.2869 98.8522 16.369L98.8249 16.424C98.8887 16.4058 98.9573 16.392 99.0303 16.3736C98.989 16.392 98.948 16.4056 98.9114 16.424C98.77 16.6019 98.7291 16.6065 98.7291 16.9075C98.7838 16.9075 98.8476 16.9075 98.9025 16.912C99.021 17.0716 98.9482 17.1721 99.167 17.1767C99.5733 17.195 99.9565 16.9304 100.413 16.9029C100.468 16.7799 100.413 16.7615 100.554 16.7113C100.582 16.7388 100.595 16.7662 100.618 16.7935C100.655 16.7615 100.696 16.7204 100.732 16.6839C100.773 16.8709 100.86 16.8709 101.029 16.9211C101.275 16.6655 102.841 16.9894 103.301 16.8618C103.319 16.8664 103.338 16.8664 103.361 16.8664C103.269 16.7706 103.192 16.7431 103.004 16.7386C103.082 16.6884 103.1 16.7111 103.151 16.6244C103.516 16.7522 103.903 16.6748 104.387 16.6793V16.5881C104.415 16.4192 104.15 16.273 103.954 16.2594V16.2276C104.031 16.1364 104.113 16.0406 104.191 15.9491C104.122 15.8488 104.132 15.9035 104.132 15.7805C104.077 15.7621 104.013 15.753 103.954 15.7392C103.662 15.8897 103 16.0404 102.977 16.451C102.772 16.4785 102.667 16.4692 102.653 16.232C101.983 16.305 101.713 15.9627 101.157 15.899C101.116 15.8486 101.075 15.7986 101.038 15.7528C101.079 15.7528 101.116 15.7528 101.157 15.7573C101.17 15.7344 101.175 15.7117 101.189 15.6981C101.011 15.6292 100.835 15.5577 100.659 15.4836C100.568 15.4243 100.472 15.1506 100.399 15.0135C100.445 14.9815 100.495 14.945 100.545 14.9084C100.468 14.8355 100.385 14.8174 100.225 14.8128V14.7579C100.536 14.7125 100.677 14.5482 100.965 14.4385C100.983 14.3975 101.006 14.3655 101.024 14.3291V14.2971C100.719 14.3884 100.463 14.3337 100.025 14.3291C99.9658 14.1192 99.815 14.0415 99.5826 14.0007C99.5733 13.9825 99.5642 13.9641 99.5506 13.9412C99.9519 13.9825 100.093 14.1512 100.436 14.1922C100.741 14.1559 101.043 14.1192 101.353 14.0783V13.9963C101.444 13.9323 101.362 13.9278 101.321 13.8229C101.367 13.8363 101.403 13.8502 101.44 13.8547V13.8274C100.723 12.8646 98.2091 13.2069 97.1186 13.3984C96.6894 13.4804 96.3839 13.8867 95.7905 13.8867C96.0461 13.6449 97.5883 13.0652 98.0722 12.9147C98.0722 12.9147 99.0396 12.9878 99.0989 12.974C99.1854 12.8782 99.2766 12.7824 99.3635 12.6912C99.7651 12.4814 100.349 12.5634 100.869 12.7002C101.549 12.892 102.183 12.9604 102.854 13.1932C103.274 13.3347 104.538 13.8502 104.972 13.7773C105.305 13.7317 105.61 13.6222 105.916 13.4942C106.628 13.2069 108.047 13.9414 108.535 13.403C108.572 13.3027 108.558 13.3939 108.504 13.2616C108.522 13.2707 108.54 13.2843 108.562 13.2936C108.65 13.152 108.558 12.6821 108.659 12.5268C108.49 12.463 108.321 12.3947 108.161 12.3352C108.166 12.2531 108.161 12.3171 108.189 12.2211C107.888 12.1984 107.865 12.1255 107.664 12.1344C107.605 11.8014 107.294 11.6736 106.934 11.6279V11.5959C107.189 11.6279 107.44 11.6554 107.696 11.6827C107.559 11.4865 107.235 11.4636 107.199 11.2675C106.957 11.2128 106.747 11.2539 106.55 11.1261C106.445 11.0573 106.473 11.0484 106.468 10.9526C106.345 10.8659 106.026 10.8932 105.912 10.7929C105.779 10.6789 105.757 10.5738 105.56 10.4919C105.524 10.3686 105.488 10.4462 105.592 10.355C105.57 10.2957 105.054 9.92144 104.835 9.88056C104.917 9.79839 104.881 9.83018 104.981 9.8211C105.004 9.7571 104.994 9.59298 105.013 9.37393C104.949 9.34648 104.881 9.30993 104.808 9.28268C104.789 9.2736 104.872 9.12764 104.872 8.9406C104.611 8.83552 104.319 8.73518 104.351 8.42035H104.205C104.032 8.15114 103.361 7.29768 103.375 7.02392C102.658 7.21572 101.741 8.3611 100.764 7.58072C100.6 7.59434 100.486 7.34351 100.185 7.28426C100.167 7.20209 100.162 7.12447 100.153 7.03776C100.089 7.02393 100.021 7.01505 99.9521 7.00576C100.039 6.76401 100.13 6.73221 100.107 6.41717C100.217 6.38063 100.326 6.33955 100.431 6.28484C100.404 6.24375 100.381 6.19359 100.349 6.1523C100.258 6.1843 100.167 6.22084 100.084 6.25263C99.8925 6.03813 99.4682 5.95142 99.1214 5.85563C99.1168 5.83292 99.1032 5.81475 99.0987 5.80092V5.76892C99.1579 5.71876 99.1398 5.72805 99.2446 5.71421V5.68676C99.021 5.48588 98.551 5.1345 98.2681 5.04325L97.5381 5.05688C96.9266 4.85167 96.3609 4.61425 95.7404 4.63717C95.6809 4.69188 95.6219 4.74679 95.5624 4.8013C95.5488 4.83784 95.5397 4.86984 95.5304 4.91092C95.5808 4.984 95.5717 4.984 95.672 5.02054C95.5488 5.18467 95.389 5.24846 95.1382 5.2943C95.3708 5.56351 95.2065 5.59076 95.3343 5.76438C95.2432 5.85997 94.545 6.13392 94.2713 6.1428C94.2395 6.19318 94.212 6.24788 94.18 6.30239C94.5543 6.42564 94.8691 6.69939 94.8873 7.16493C94.5774 7.83568 93.8699 7.94964 93.0303 8.09106C92.7244 8.10489 92.4277 8.10943 92.1221 8.11852H92.0676C92.0904 8.24631 92.0538 8.41519 92.2316 8.47444C92.072 8.77565 91.7526 9.13156 91.9669 9.47386C91.8164 9.59256 91.6017 9.74761 91.4058 9.74761C91.4058 9.82957 91.4058 9.91628 91.401 9.99844C91.3616 10.0033 91.3231 10.0141 91.2868 10.0304C91.278 9.92102 91.2231 9.93465 91.1729 9.79777C90.9357 9.82977 90.8029 9.93011 90.6481 10.0304C90.543 9.97573 90.4518 9.93465 90.356 9.88882C90.2602 9.42802 89.9635 9.15427 89.7674 8.72981C89.9177 8.5884 90.0455 8.48352 90.1598 8.3101C90.1551 8.23702 90.1417 8.16414 90.1324 8.09085C90.3013 7.91764 90.4836 7.84456 90.6114 7.61643C90.0135 7.57081 88.2752 7.03693 87.9283 6.69918C87.8051 6.58956 87.7778 6.32489 87.5951 6.18822C87.3262 6.06615 87.0585 5.94139 86.792 5.81393C86.491 5.81847 86.1898 5.82755 85.8888 5.8321H85.8294C86.0439 5.61305 86.1762 5.29368 86.3496 5.03809C86.1991 4.96047 85.9892 4.95138 85.7429 4.96047C85.7429 4.91959 85.7429 4.87851 85.7472 4.82834C86.3176 4.16647 88.1519 3.49138 88.9323 3.537C88.896 3.50046 88.8503 3.45484 88.8181 3.40921C89.1014 3.43192 89.4113 3.46846 89.7172 3.42759C89.8221 3.28142 89.808 3.28142 89.6988 3.15383H89.6396V3.13629C90.0913 3.27316 91.6244 3.25025 92.3228 2.89433C92.4186 2.83033 92.3548 2.86708 92.3228 2.78945C92.6286 2.72091 92.9341 2.65712 93.2355 2.58858H93.29C93.29 2.58403 93.2946 2.57495 93.2946 2.56112C93.2355 2.51549 93.2033 2.50187 93.0891 2.48804C93.0848 2.47441 93.0712 2.45149 93.0664 2.43333C93.2673 2.45149 93.4727 2.46512 93.6732 2.48349C93.6732 2.634 94.1022 2.90775 94.2983 2.9672C94.3621 2.9032 94.3119 2.95812 94.3347 2.88958C94.3414 2.87837 94.3509 2.869 94.3621 2.86233C94.2847 2.86687 94.3258 2.85779 94.2391 2.88958C94.1932 2.77562 94.1751 2.76654 94.0473 2.67528V2.64783C94.1431 2.68891 94.2391 2.73454 94.3347 2.78016C94.3249 2.69979 94.3174 2.61918 94.3119 2.53841C94.4261 2.61583 94.5399 2.69799 94.654 2.77562V2.6982C95.1516 2.57495 95.6169 2.58858 95.9955 2.4837C95.9272 2.39699 95.845 2.31937 95.772 2.23741C95.7949 2.21903 93.0571 0.713401 89.8673 0.75882C87.814 0.799903 80.4126 3.33221 74.5721 6.28009C70.1095 8.54318 66.6736 11.3587 66.4682 11.5594C64.684 13.1109 62.973 15.009 62.0741 17.3317C61.9645 17.4457 61.8687 17.5644 61.7638 17.6874C61.6864 17.8381 61.1752 19.1751 61.1705 19.2343C61.2572 19.2389 61.3392 19.248 61.4213 19.2573C61.3666 19.6497 61.604 19.6541 61.5033 20.1471C61.3437 20.8405 60.8509 21.6894 60.6273 22.456C60.5862 22.6158 60.4221 23.0035 60.4677 23.2089C60.5181 23.469 60.6182 23.8202 60.5181 24.1582C60.4039 24.345 60.2989 24.5368 60.1894 24.7284C60.0524 24.7284 60.0022 24.7649 59.8564 24.7193C59.8471 24.7193 59.8381 24.7284 59.829 24.7284C59.7881 25.1208 59.9341 25.3535 59.9114 25.6958C59.9933 25.6912 59.9661 25.6958 60.0437 25.6502C60.2809 26.2524 60.1669 26.9231 59.715 27.3569C59.8474 27.9271 60.1488 28.2467 60.0391 29.1274V29.1548C60.0621 29.1639 60.0802 29.1685 60.0984 29.1728C60.6186 28.63 60.4863 28.6984 60.5365 28.0047C60.5229 27.9409 60.5001 27.8726 60.4818 27.8133C60.4314 27.8635 60.3905 27.918 60.3492 27.9729C60.3356 27.982 60.3265 27.9865 60.3172 27.9865C60.2443 27.5303 60.7006 26.4122 60.7919 25.9377C60.8513 25.632 60.6822 25.0936 60.7646 24.7284C60.9607 23.866 61.0565 21.9997 61.7729 21.4566C61.8049 21.5206 61.846 21.5844 61.8825 21.6436C61.9191 21.6254 61.9511 21.6025 61.9921 21.5705C62.1429 22.0817 61.5175 22.8346 61.5951 23.5054C61.4356 23.6239 61.3623 23.7015 61.2667 23.8749C61.2896 23.8931 61.3171 23.9205 61.3491 23.948C61.3992 23.8931 61.4583 23.8293 61.513 23.7793C61.5087 23.948 61.4217 24.4957 61.5861 24.6646C61.6362 24.7331 61.5861 24.6964 61.6771 24.6782C61.6955 24.6964 61.7139 24.71 61.7277 24.7329C61.6362 24.9245 61.5588 25.0294 61.5634 25.3306C61.6183 25.381 61.5951 25.3809 61.7004 25.3946C61.673 25.5176 61.6453 25.6363 61.6183 25.7548C61.6637 25.746 61.7093 25.7414 61.7549 25.7367C61.7549 26.1244 61.6044 26.2431 61.4219 26.5077C61.4721 26.8591 61.6274 26.9504 61.7781 27.2103C61.6684 27.329 61.6732 27.4021 61.641 27.58C61.9195 27.9543 62.2752 30.5186 61.7461 30.8975C61.6183 31.0798 61.6135 31.0434 61.6868 31.2168C61.5954 31.3444 61.5409 31.3354 61.4131 31.3764C61.0068 32.362 61.8829 32.6221 61.9059 33.4252C61.9653 33.4572 62.0291 33.5119 62.0974 33.5576C62.0974 33.5576 65.3372 33.4434 67.2628 33.4023C67.3359 33.398 67.1214 33.3292 67.0256 33.2518C66.9434 33.1787 66.5648 31.2121 66.6331 30.9383C66.7062 30.8335 66.7702 30.7329 66.834 30.6235C66.5466 30.0122 66.98 29.3733 67.2308 28.8167C67.4271 28.3377 67.6325 27.8538 67.8241 27.3703C68.0114 27.1374 68.3671 27.2014 68.481 26.7906C68.5498 26.5123 68.4263 26.2615 68.568 25.9099C68.6957 25.5907 69.0426 25.4945 69.0197 25.0884C69.2067 25.1113 69.5308 24.9652 69.5628 24.8056C69.5948 24.7597 69.6223 24.7098 69.6541 24.6551C69.6586 24.7738 69.663 24.7327 69.6223 24.833C69.7637 24.7645 69.7088 24.7463 69.791 24.76C69.832 24.7098 69.8684 24.6551 69.9097 24.6049C69.8777 24.564 69.8502 24.5182 69.8228 24.4773C70.3248 24.5229 70.6946 24.3266 71.1279 24.0758C71.3928 24.1441 71.297 23.948 71.2739 23.8022C71.3379 23.7244 71.4064 23.6972 71.5068 23.6377C71.5113 23.6561 71.5204 23.6652 71.5295 23.6742C71.4931 23.7153 71.4521 23.7564 71.4203 23.7927C71.4521 23.8109 71.4931 23.8247 71.5295 23.8477C71.6527 23.9434 72.1137 23.6972 72.3875 23.7244C72.6567 23.7519 73.2362 23.9757 73.4416 24.0849C73.4689 24.0803 73.4963 24.0803 73.5281 24.0803V23.9664C73.4614 23.9581 73.3944 23.952 73.3272 23.948C73.318 23.9186 73.3074 23.8897 73.2954 23.8613C73.3776 23.8386 73.4505 23.8157 73.5326 23.7882C73.5558 23.8931 73.7197 24.0622 73.8111 24.1714C73.793 24.1804 73.7746 24.1943 73.7566 24.2034C73.7383 24.2352 73.7156 24.2672 73.7017 24.2992C73.793 24.363 73.8842 24.4406 73.9802 24.5091C74.1169 24.4542 74.2494 24.395 74.3861 24.3446C74.3997 24.4086 74.4181 24.4771 74.4367 24.5409C74.6374 24.4862 74.6555 24.3768 74.7835 24.2626C74.902 24.3859 74.9933 24.5638 75.1531 24.6412C75.1805 24.6549 75.2123 24.6778 75.2396 24.696H75.2761C75.3126 24.6458 75.3492 24.5911 75.3857 24.5409C75.2899 24.4542 75.1944 24.363 75.1074 24.2717C75.0847 24.2581 75.0664 24.2352 75.0436 24.217C75.1256 24.1121 75.1944 24.0845 75.3628 24.0529C75.413 23.9525 75.3994 23.9525 75.3946 23.7925C75.3172 23.8384 75.235 23.8792 75.1621 23.9251H75.1347C75.1163 23.8931 75.0984 23.8749 75.0752 23.8384C75.5224 23.5553 76.0517 23.6237 76.5171 23.7151C76.5445 23.6375 76.572 23.5737 76.6038 23.5054C76.6358 23.487 76.6632 23.4688 76.6952 23.4414C76.6859 23.5646 76.686 23.6969 76.686 23.8157C77.3383 23.8931 77.8177 23.6377 78.3012 24.1489C78.4187 24.2767 78.4143 24.4912 78.4688 24.5459Z" fill="white"/>
</g>
<defs>
<clipPath id="clip0_7_69">
<rect width="202" height="99" fill="white"/>
</clipPath>
</defs>
</svg>
