<svg width="184" height="51" viewBox="0 0 184 51" fill="none" xmlns="http://www.w3.org/2000/svg">
<g clip-path="url(#clip0_7_42)">
<path d="M25.8637 47.0309C23.1205 47.5125 20.3291 47.6569 17.4414 48.0414L8.63381 22.2523V49.1483C5.89061 49.4368 3.38801 49.8218 0.789062 50.2067V0.9375H8.10472L18.1151 28.8924V0.9375H25.8637V47.0309ZM41.0241 18.9804C44.0083 18.9804 48.5804 18.836 51.3236 18.836V26.5342C47.9063 26.5342 43.9119 26.5342 41.0241 26.6786V38.13C45.5483 37.8414 50.0723 37.4561 54.6443 37.3117V44.7209L33.3234 46.4053V0.9375H54.6443V8.63582H41.0241V18.9804ZM83.2804 8.636H75.2912V44.0481C72.6923 44.0481 70.0934 44.0481 67.5911 44.1441V8.636H59.6019V0.9375H83.2808L83.2804 8.636ZM95.7936 18.4513H106.334V26.1494H95.7936V43.6152H88.237V0.9375H109.751V8.63582H95.7936V18.4513ZM122.264 36.8789C126.644 36.9749 131.071 37.3123 135.355 37.5524V45.1546C128.473 44.7213 121.59 44.2888 114.564 44.1441V0.9375H122.264V36.8789ZM141.852 45.6839C144.307 45.8285 146.906 45.9729 149.408 46.2611V0.9375H141.852V45.6839ZM183.146 0.9375L173.376 24.3693L183.146 50.2067C180.258 49.8218 177.371 49.2925 174.483 48.8112L168.948 34.5697L163.318 47.6569C160.526 47.1753 157.831 47.0309 155.04 46.646L164.954 24.0803L156.002 0.9375H164.28L169.333 13.8803L174.724 0.9375H183.146Z" fill="white"/>
</g>
<defs>
<clipPath id="clip0_7_42">
<rect width="184" height="51" fill="white"/>
</clipPath>
</defs>
</svg>
