<svg width="79" height="97" viewBox="0 0 79 97" fill="none" xmlns="http://www.w3.org/2000/svg">
<g clip-path="url(#clip0_7_38)">
<path fill-rule="evenodd" clip-rule="evenodd" d="M66.9902 32.7139C67.9124 27.5485 64.4688 23.4894 60.4703 20.5377C54.8746 16.4177 48.5414 13.9578 42.0225 12.0514V80.1894C44.9127 77.6686 47.8034 74.8394 50.5699 71.9488C56.4739 65.4304 61.9475 58.7889 64.2221 50.7939C65.1443 47.1662 64.653 43.0456 61.5777 40.5858C64.2227 38.4947 66.6204 35.9118 66.9902 32.7139ZM55.7358 56.267C53.7063 59.9568 50.9392 63.3393 47.6787 66.4752L47.6177 46.9806C49.8319 45.3819 52.1066 43.9673 54.8746 43.7211C55.982 43.7211 56.9657 44.0899 57.7033 44.951C60.1641 48.8254 57.2729 52.8845 55.7358 56.267ZM61.3325 31.1762C60.7786 34.251 57.396 36.0343 54.9977 37.3258C52.5994 38.5557 50.1391 39.5395 47.6177 40.4617V20.5372C51.4931 21.7056 54.9977 23.6736 58.3182 26.0108C59.8564 27.3023 61.9475 28.901 61.3325 31.1762ZM36.9797 79.6971V11.8047L31.5066 14.6338V51.0401C31.261 52.0849 31.9985 53.6841 30.8301 54.1759C30.5224 54.2375 30.2767 54.1149 30.1536 53.8692C27.8169 45.0746 26.8326 35.7892 26.4023 26.257L26.2177 17.9548L20.9908 21.8292V24.0429C21.298 32.8375 21.9135 41.4464 23.5737 49.6871L21.4831 52.0243C20.6835 50.9175 20.1917 49.7486 19.6377 48.5803C16.9938 41.57 16.0095 33.8827 15.6408 25.9498L11.0898 29.3323C11.5207 41.3859 13.7959 52.7624 21.1139 61.8022C22.5284 60.2035 23.943 58.5427 25.3575 57.0056C26.0956 60.265 27.1409 63.4014 28.3708 66.4757C30.3993 71.2107 32.675 76.0073 36.9797 79.6971Z" fill="white"/>
<path fill-rule="evenodd" clip-rule="evenodd" d="M78.859 20.7233L70.6798 18.6943L69.2037 13.1596L60.8405 11.1917L59.1192 5.16515L39.3789 0.675781L20.0074 5.16464L18.2856 11.1912L9.92182 13.1591C9.36841 15.0651 8.87654 16.9104 8.38417 18.7553L0.205037 20.7228C-0.409924 38.1263 4.38717 53.4388 13.0582 67.091C19.3924 76.8689 28.9246 87.2006 39.3789 92.3044C46.4502 88.9219 52.7239 83.2642 58.3811 76.9299C72.0949 61.065 79.597 42.4931 78.859 20.7233ZM54.7524 73.3648C50.2636 78.4075 45.2203 83.3883 39.563 86.2789C34.1515 83.5729 29.4164 78.8994 25.1117 74.1638C13.9193 61.065 6.47824 46.4291 5.24832 29.2717C5.12523 27.8572 5.06419 26.5046 5.12523 25.0285L12.0744 23.4298L13.6731 17.7105L22.2215 15.6815L22.2831 15.4969L23.8202 9.59297L39.3174 5.96475L55.3063 9.59297L56.8435 15.6195L65.515 17.7105L66.9911 23.4298L74.0014 25.0285C73.8162 43.723 66.3751 59.4048 54.7524 73.3648ZM57.3359 91.6289C58.258 91.5674 58.873 91.0755 58.873 90.0297C58.873 88.8619 58.135 88.3079 56.7199 88.3079H54.5067V94.2114H55.49V91.6905H56.4122L57.9503 94.2114H58.9956L57.3359 91.6289ZM55.4905 90.8909V89.1076H56.6588C57.2128 89.1076 57.8888 89.2301 57.8888 89.9682C57.8888 90.7678 57.2738 90.8909 56.5358 90.8909H55.4905Z" fill="white"/>
<path fill-rule="evenodd" clip-rule="evenodd" d="M56.5965 86.4023C53.8299 86.4023 51.5547 88.6775 51.5547 91.4446C51.5547 94.2117 53.8299 96.4874 56.5965 96.4874C59.364 96.4874 61.6402 94.2117 61.6402 91.4446C61.6402 88.6775 59.3645 86.4023 56.5965 86.4023ZM56.5965 95.9955C55.9985 95.9969 55.4061 95.8801 54.8534 95.6518C54.3007 95.4236 53.7985 95.0884 53.3757 94.6655C52.9529 94.2427 52.6178 93.7405 52.3896 93.1877C52.1614 92.635 52.0447 92.0426 52.0461 91.4446C52.0447 90.8466 52.1614 90.2543 52.3896 89.7015C52.6178 89.1488 52.9529 88.6466 53.3757 88.2237C53.7985 87.8008 54.3007 87.4657 54.8534 87.2374C55.4061 87.0092 55.9985 86.8924 56.5965 86.8937C59.1189 86.8937 61.1474 88.9227 61.1474 91.4446C61.1489 92.0427 61.0322 92.6352 60.8041 93.188C60.5759 93.7408 60.2408 94.2431 59.8179 94.666C59.395 95.0889 58.8927 95.4241 58.3398 95.6522C57.787 95.8804 57.1945 95.9971 56.5965 95.9955Z" fill="white"/>
</g>
<defs>
<clipPath id="clip0_7_38">
<rect width="79" height="97" fill="white"/>
</clipPath>
</defs>
</svg>
