<svg width="216" height="67" viewBox="0 0 216 67" fill="none" xmlns="http://www.w3.org/2000/svg">
<g clip-path="url(#clip0_7_49)">
<mask id="mask0_7_49" style="mask-type:luminance" maskUnits="userSpaceOnUse" x="0" y="0" width="216" height="67">
<path d="M215.613 0.175781H0.75V66.2675H215.613V0.175781Z" fill="white"/>
</mask>
<g mask="url(#mask0_7_49)">
<path d="M107.202 66.2683V66.161C107.309 66.0269 107.497 65.9464 107.658 65.9732C108.436 65.9464 109.187 65.9464 109.965 65.9732C110.126 65.9732 110.314 66.0269 110.421 66.161V66.2683H107.202Z" fill="white"/>
<path d="M142.314 0.228515C142.85 0.174869 143.387 0.28216 143.896 0.496744C144.942 0.899088 145.667 1.86471 145.72 2.99128C145.935 5.43217 144.299 6.66602 142.126 6.61238C141.831 6.61238 141.536 6.55873 141.241 6.50508C139.578 6.10274 138.72 4.81524 138.88 2.96446C139.015 1.48919 140.168 0.389452 141.751 0.255338C141.938 0.228515 142.126 0.201692 142.314 0.228515Z" fill="white"/>
<path d="M110.421 66.1596C109.349 66.1327 108.276 66.1327 107.203 66.1596C105.727 66.0791 104.252 66.0255 102.777 65.9182C98.8608 65.6231 94.9715 65.033 91.1626 64.1478C77.9925 61.09 66.4318 54.9476 56.3464 46.0155C55.4076 45.184 54.5225 44.3257 53.6105 43.4674C53.3959 43.2796 53.2081 43.0114 53.1008 42.7431C52.9399 42.3676 53.0204 41.9653 53.2886 41.6702C53.5568 41.3752 53.986 41.2679 54.3615 41.4288C54.6029 41.5361 54.8443 41.6434 55.0589 41.7775C64.6884 47.7322 75.203 52.0775 86.2272 54.6525C89.9288 55.5109 93.6571 56.1814 97.4124 56.6642C102.804 57.3348 108.249 57.5762 113.667 57.3885C116.591 57.308 119.488 57.0398 122.385 56.6642C129.144 55.8059 135.823 54.277 142.287 52.1312C145.694 51.0046 149.02 49.7171 152.265 48.215C152.748 47.9468 153.338 47.8663 153.875 48.0004C154.76 48.215 155.296 49.127 155.082 50.0122C155.055 50.1194 155.001 50.2536 154.948 50.3609C154.733 50.7632 154.438 51.1119 154.062 51.3801C150.978 53.7942 147.652 55.9132 144.138 57.6835C137.513 61.0364 130.431 63.4236 123.136 64.7916C118.924 65.5426 114.686 65.9986 110.421 66.1596ZM70.6967 11.7895C71.3673 11.3871 72.0647 10.9579 72.7889 10.5824C74.6665 9.6168 76.7587 9.13398 78.8777 9.24127C80.4066 9.32174 81.8014 9.75091 82.8743 10.8775C83.8936 11.9236 84.2691 13.2111 84.3764 14.6059C84.4032 14.9009 84.4032 15.196 84.4032 15.5178V29.4121C84.4032 30.6192 84.2423 30.7801 83.0353 30.7801H79.7629C79.5483 30.7801 79.3337 30.7801 79.1191 30.7533C78.7972 30.7265 78.529 30.4582 78.4754 30.1364C78.4217 29.8413 78.4217 29.5462 78.4217 29.2512V16.8322C78.4485 16.3225 78.3949 15.8397 78.2608 15.3569C78.0462 14.5254 77.2951 13.9353 76.4368 13.8816C74.8543 13.7744 73.2717 14.0962 71.8233 14.7668C71.6087 14.8204 71.4746 15.035 71.5014 15.2496V29.3585C71.5014 29.6267 71.5014 29.8681 71.4477 30.1364C71.4477 30.5119 71.1527 30.7801 70.7772 30.7801C70.3748 30.8069 69.9725 30.8069 69.5433 30.8069H66.7001C65.7076 30.8069 65.493 30.5655 65.493 29.5731V16.8858C65.493 16.4298 65.4662 15.947 65.3589 15.491C65.1712 14.579 64.3933 13.9353 63.4813 13.8816C61.8719 13.7744 60.2357 14.0962 58.7873 14.7936C58.5727 14.8473 58.4386 15.0887 58.4923 15.3033V29.5999C58.4923 30.5923 58.2777 30.8069 57.2852 30.8069H53.691C52.7521 30.8069 52.5107 30.5387 52.5107 29.6267V11.0116C52.5107 10.797 52.5376 10.5824 52.5912 10.3678C52.6985 10.046 53.0204 9.8582 53.3423 9.8582H56.6951C57.1779 9.8582 57.473 10.1533 57.6339 10.6092C57.768 10.9848 57.8485 11.3335 57.9826 11.7358C58.2509 11.7358 58.4118 11.548 58.5996 11.4408C60.0748 10.5288 61.6305 9.75091 63.374 9.42904C64.7152 9.16081 66.0563 9.16081 67.3975 9.42904C68.6582 9.69727 69.7847 10.4483 70.5089 11.5212C70.5626 11.6017 70.6162 11.6553 70.6699 11.709C70.6431 11.7358 70.6699 11.7358 70.6967 11.7895Z" fill="white"/>
<path d="M126.3 25.1481C126.461 24.6117 126.622 24.102 126.783 23.5656C128.017 19.408 129.251 15.2773 130.485 11.1197L130.646 10.6369C130.78 10.1541 131.236 9.85906 131.719 9.85906H135.796C136.815 9.85906 137.03 10.1541 136.681 11.1197L135.072 15.3846C133.274 20.0518 131.477 24.7458 129.68 29.413C129.627 29.5739 129.546 29.7349 129.492 29.8958C129.305 30.4591 128.741 30.8346 128.151 30.781C126.971 30.7541 125.791 30.7541 124.611 30.781C123.779 30.8078 123.296 30.4323 123.001 29.6812C122.331 27.9109 121.633 26.1138 120.963 24.3434C119.353 20.1322 117.717 15.921 116.108 11.683C115.947 11.3611 115.84 10.9856 115.759 10.6369C115.679 10.1005 115.866 9.83223 116.403 9.83223C117.932 9.80541 119.461 9.83223 120.963 9.83223C121.606 9.83223 121.902 10.2614 122.062 10.8247C122.357 11.844 122.653 12.89 122.974 13.9093C124.074 17.6377 125.147 21.3929 126.247 25.1213C126.22 25.1481 126.247 25.1481 126.3 25.1481Z" fill="white"/>
<path d="M31.0522 12.8065C31.24 12.7528 31.4009 12.6455 31.5082 12.4846C31.991 12.0018 32.5007 11.5458 33.0371 11.1166C34.4319 10.0437 36.1754 9.50723 37.9189 9.64135C38.6163 9.66817 38.8577 9.88275 38.9113 10.5533C38.965 11.4653 38.9382 12.4041 38.9382 13.3161C38.965 13.6916 38.9382 14.0403 38.8845 14.4158C38.7772 14.8986 38.5895 15.0864 38.1067 15.1401C37.7311 15.1669 37.3824 15.1401 37.0069 15.1132C35.2098 14.9523 33.4663 15.301 31.7764 15.8643C31.4009 15.9984 31.4009 16.2666 31.4009 16.5617V29.4367C31.4009 29.6781 31.4009 29.8927 31.3741 30.1341C31.3473 30.4828 31.079 30.751 30.7303 30.751C30.5426 30.7778 30.328 30.7778 30.1402 30.7778H26.6533C26.4655 30.7778 26.2509 30.7778 26.0632 30.751C25.7145 30.7242 25.4462 30.4291 25.4194 30.0804C25.3926 29.8659 25.3926 29.6513 25.3926 29.4367V11.1971C25.3926 9.96322 25.5267 9.82911 26.7605 9.82911H29.3356C30.0329 9.82911 30.3548 10.0705 30.5426 10.7411C30.7303 11.4117 30.8913 12.0822 31.0522 12.8065ZM156.53 40.0049C158.3 40.0586 160.044 40.1659 161.76 40.6219C162.243 40.756 162.699 40.9169 163.155 41.1315C163.772 41.3729 164.174 41.963 164.255 42.6068C164.362 43.3578 164.389 44.1357 164.335 44.9135C163.987 49.5002 162.565 53.926 160.205 57.869C159.346 59.2906 158.3 60.5781 157.093 61.7047C156.852 61.9461 156.557 62.1339 156.235 62.2411C155.725 62.3753 155.403 62.107 155.377 61.5974C155.403 61.3292 155.457 61.0609 155.564 60.7927C156.503 58.2714 157.415 55.7768 158.139 53.175C158.569 51.7534 158.864 50.3049 159.051 48.8297C159.105 48.2932 159.132 47.7568 159.078 47.2203C159.051 46.3083 158.461 45.5305 157.576 45.2622C156.745 44.994 155.886 44.8331 155.001 44.7794C152.533 44.6721 150.066 44.7794 147.625 45.1013L144.379 45.5036C144.03 45.5304 143.709 45.5036 143.521 45.1818C143.333 44.8599 143.414 44.538 143.601 44.2161C143.816 43.9211 144.084 43.6528 144.406 43.4651C146.391 42.0435 148.617 41.1851 150.978 40.6219C152.802 40.2463 154.652 40.0586 156.53 40.0049Z" fill="white"/>
<path d="M145.292 20.3164V29.9727C145.238 30.5091 144.997 30.7505 144.46 30.7774C143.012 30.8042 141.59 30.8042 140.142 30.7774C139.605 30.7774 139.364 30.5091 139.31 29.9995C139.283 29.8386 139.283 29.6508 139.283 29.4899V10.9284C139.31 10.0969 139.525 9.85547 140.356 9.85547H144.219C145.05 9.85547 145.292 10.0969 145.292 10.9284V20.3164Z" fill="white"/>
<path d="M41.5129 20.2645V10.7424C41.5397 10.0986 41.7811 9.85723 42.4248 9.83041C43.8196 9.80359 45.2144 9.80359 46.6092 9.83041C47.2262 9.83041 47.4139 10.0182 47.4676 10.6351C47.4944 10.8765 47.4944 11.0911 47.4944 11.3325V29.1966C47.4944 29.4916 47.4676 29.7867 47.4407 30.0817C47.4139 30.4304 47.1457 30.6718 46.797 30.6987C46.636 30.7255 46.5019 30.7255 46.341 30.7255H42.6126C42.4785 30.7255 42.3712 30.7255 42.2371 30.6987C41.8616 30.6718 41.5397 30.3768 41.5129 30.0013C41.486 29.7867 41.486 29.5721 41.486 29.3575C41.5129 26.3802 41.5129 23.3224 41.5129 20.2645ZM44.6243 0.227796C45.0535 0.200973 45.4827 0.281441 45.885 0.415556C47.3334 0.898369 48.0845 2.15905 47.9504 3.79525C47.8431 5.19004 46.797 6.31661 45.4022 6.53119C44.8121 6.63848 44.1952 6.63848 43.6051 6.53119C42.0761 6.23614 40.9496 5.10957 41.0569 3.17832C41.2178 1.27389 42.4785 0.227796 44.6243 0.227796Z" fill="white"/>
<path d="M21.4228 18.0646C21.3155 16.6699 20.94 15.3019 20.3767 14.0412C19.277 11.7344 17.5871 10.0446 15.0121 9.45448C12.0616 8.81073 9.40613 9.45448 6.99206 11.2516C6.83113 11.4126 6.64337 11.5467 6.42878 11.654C6.37514 11.6271 6.32149 11.6003 6.32149 11.5735C6.24102 11.3053 6.18738 11.037 6.10691 10.7688C5.89232 10.0982 5.62409 9.85683 4.89987 9.85683C4.09519 9.85683 3.26367 9.88365 2.45899 9.85683C1.84206 9.83 1.27878 9.91047 0.849609 10.3933C0.849609 19.7813 0.849609 29.1962 0.876432 38.5574C1.22513 39.1207 1.76159 39.228 2.37852 39.2011C3.34414 39.1743 4.30977 39.2011 5.2754 39.2011C6.96524 39.2011 6.96524 39.2011 6.96524 37.5381V29.8936C6.96524 29.7058 6.88477 29.4912 7.07253 29.3303C8.41368 30.3764 10.0499 31.0201 11.7397 31.1811C14.1001 31.4225 16.246 30.8324 18.0431 29.223C19.3574 28.016 20.3231 26.4602 20.8327 24.7436C21.5569 22.5441 21.6106 20.3178 21.4228 18.0646ZM15.0121 23.617C14.8244 24.4485 14.3952 25.1996 13.7783 25.7628C13.0809 26.3529 12.2225 26.7016 11.3106 26.7016C9.94259 26.7821 8.60144 26.4871 7.39441 25.8433C7.09936 25.7092 6.9116 25.4141 6.93842 25.0923V20.2373C6.93842 18.6279 6.96524 17.0186 6.93842 15.4092C6.9116 15.0337 7.12618 14.7118 7.47488 14.5777C8.95014 13.8803 10.479 13.5584 12.0884 13.8803C13.215 14.0412 14.1806 14.7654 14.6366 15.8115C15.0389 16.6699 15.2804 17.6087 15.334 18.5475C15.4949 20.2641 15.4949 21.9808 15.0121 23.617Z" fill="white"/>
<path d="M215.46 22.2479C215.46 22.2211 215.46 22.2211 215.46 22.2479V22.2479ZM215.487 18.6537V18.761C215.379 18.6537 215.326 18.4927 215.379 18.3586V18.144C215.379 18.144 215.379 18.1172 215.406 18.1172H215.379V17.849H215.433C215.433 17.8222 215.406 17.8222 215.406 17.7953C215.353 17.2857 215.245 16.7761 215.111 16.2932C214.119 12.7526 211.892 10.419 208.271 9.50704C206.581 9.1047 204.865 9.05105 203.148 9.31928C199.527 9.85574 196.925 11.787 195.664 15.2203C194.431 18.4927 194.457 22.087 195.691 25.3594C196.764 28.3368 198.91 30.2144 201.995 30.9922C203.631 31.3946 205.348 31.5019 207.037 31.2605C212.67 30.5899 215.004 26.325 215.379 22.6235H215.353V22.2479C215.326 22.087 215.299 21.9529 215.46 21.8456V21.8992C215.46 21.8724 215.487 21.8188 215.513 21.792V18.7073C215.513 18.6805 215.487 18.6805 215.487 18.6537ZM209.049 23.75C208.888 24.3133 208.647 24.8229 208.298 25.3058C207.708 26.1373 206.769 26.6737 205.75 26.7542C205.24 26.8078 204.731 26.8078 204.221 26.7006C203.094 26.486 202.156 25.7349 201.7 24.6888C201.297 23.8573 201.056 22.9453 200.975 22.0334C200.841 20.4508 200.814 18.8683 201.19 17.3125C201.324 16.6956 201.592 16.0787 201.914 15.5422C202.504 14.5766 203.524 13.9597 204.65 13.8792C205.16 13.8255 205.669 13.8255 206.179 13.9328C207.252 14.1474 208.137 14.8448 208.62 15.8373C209.076 16.7761 209.344 17.8222 209.398 18.8682C209.425 19.3511 209.451 19.8339 209.425 20.3167C209.505 21.4969 209.371 22.6503 209.049 23.75ZM168.466 0.414062H164.738C163.718 0.414062 163.531 0.601823 163.531 1.6211V10.3117C163.531 10.4995 163.611 10.6873 163.477 10.875C163.236 10.8482 163.101 10.6873 162.914 10.58C160.124 8.94376 157.2 8.64871 154.25 10.0167C152.184 10.9823 150.897 12.7258 150.065 14.7912C149.261 16.7761 149.073 18.8682 149.127 20.9873C149.127 22.9722 149.583 24.9302 150.468 26.7006C151.487 28.6586 152.962 30.1607 155.108 30.8045C158.032 31.7164 160.768 31.2605 163.262 29.4097C163.45 29.3024 163.557 29.1146 163.799 29.061C163.933 29.356 164.04 29.6779 164.094 29.9998C164.201 30.4289 164.577 30.724 165.033 30.724H165.676C166.642 30.724 167.581 30.7508 168.52 30.724C169.271 30.724 169.485 30.4826 169.512 29.7047V1.43333C169.485 0.601824 169.271 0.414062 168.466 0.414062ZM163.557 20.1558V25.0375C163.611 25.3594 163.423 25.6545 163.128 25.7886C161.841 26.5128 160.365 26.8078 158.917 26.5933C157.683 26.4591 156.61 25.7081 156.047 24.6084C155.618 23.75 155.376 22.838 155.296 21.8992C155.081 20.2094 155.215 18.4927 155.618 16.8565C155.752 16.4005 155.913 15.9714 156.154 15.5422C156.718 14.4961 157.79 13.8255 158.971 13.7451C160.392 13.611 161.814 13.8792 163.101 14.4693C163.423 14.5766 163.611 14.8985 163.584 15.2472C163.531 16.9102 163.557 18.5196 163.557 20.1558Z" fill="white"/>
<path d="M94.1934 22.0078C96.2051 22.3833 98.2705 22.4101 100.282 22.0882C101.462 21.9273 102.589 21.5786 103.635 21.0153C104.842 20.3179 105.727 19.3523 106.103 18.0112C107.042 14.6315 105.593 11.2249 102.079 9.96427C100.363 9.40099 98.5387 9.21323 96.7416 9.45463C92.5036 9.93744 89.7408 12.271 88.4801 16.3213C87.595 19.0841 87.7022 21.9005 88.4265 24.6901C89.3653 28.2575 91.7257 30.3765 95.2931 31.1276C97.3317 31.5836 99.3971 31.5031 101.436 31.1812C102.509 30.9935 103.581 30.7252 104.601 30.3229C105.218 30.0815 105.54 29.706 105.513 29.0086C105.486 28.3648 105.513 27.6942 105.513 27.0237C105.513 26.219 105.191 25.9776 104.413 26.1653C103.635 26.3531 102.884 26.514 102.106 26.675C100.443 27.0237 98.7265 27.0237 97.0635 26.7286C94.7835 26.2726 93.3082 24.3145 93.4424 21.9005C93.6838 21.9273 93.952 21.9541 94.1934 22.0078ZM93.5228 17.9039C93.6033 17.2601 93.7911 16.6432 94.0325 16.0531C94.8372 14.095 96.527 13.4244 98.2437 13.5317C98.7265 13.5585 99.2093 13.6658 99.6653 13.8536C100.363 14.1486 100.819 14.7924 100.899 15.5434C100.98 15.9994 100.953 16.4822 100.819 16.9382C100.497 17.9039 99.7189 18.3062 98.7801 18.494C98.2168 18.6281 97.6267 18.6817 97.0366 18.6281C95.9905 18.6281 94.9176 18.5476 93.8715 18.3867C93.4692 18.333 93.4692 18.333 93.5228 17.9039Z" fill="white"/>
<path d="M184.667 22.2756C186.223 22.1684 187.779 21.8733 189.173 21.1223C190.595 20.4249 191.587 19.1105 191.883 17.5548C192.07 16.5892 192.07 15.5699 191.856 14.6043C191.292 12.1902 189.764 10.6881 187.457 9.91027C186.169 9.50792 184.801 9.34699 183.46 9.40063C178.954 9.50792 175.521 11.7879 174.126 16.2941C173.187 19.2715 173.321 22.3025 174.233 25.2798C175.172 28.3376 177.318 30.1884 180.376 31.0199C181.69 31.3418 183.058 31.4759 184.399 31.4223C186.357 31.3954 188.315 31.0199 190.166 30.3225C190.944 30.0275 191.132 29.7592 191.132 28.9277V26.9965C191.105 26.2186 190.783 25.9504 190.005 26.1381C189.415 26.2991 188.852 26.4332 188.261 26.5673C186.464 26.9965 184.587 27.077 182.763 26.7551C180.939 26.4064 179.705 25.3603 179.222 23.5363C179.088 22.9999 178.981 22.4634 178.927 21.9001C179.061 21.9001 179.195 21.9001 179.303 21.9538C181.073 22.2756 182.87 22.4098 184.667 22.2756ZM179.061 17.984C179.249 16.9379 179.49 15.9186 180.134 15.0603C181.127 13.7459 182.495 13.3704 184.05 13.5314C184.184 13.5314 184.292 13.585 184.426 13.585C186.303 13.8801 186.759 15.3821 186.411 16.8306C186.142 17.9035 185.257 18.3058 184.265 18.4936C183.728 18.6009 183.165 18.6545 182.602 18.6277C181.502 18.6009 180.429 18.5204 179.356 18.3595C179.115 18.3327 179.008 18.2254 179.061 17.984Z" fill="white"/>
</g>
</g>
<defs>
<clipPath id="clip0_7_49">
<rect width="216" height="67" fill="white"/>
</clipPath>
</defs>
</svg>
