<svg width="183" height="52" viewBox="0 0 183 52" fill="none" xmlns="http://www.w3.org/2000/svg">
<g clip-path="url(#clip0_7_71)">
<path fill-rule="evenodd" clip-rule="evenodd" d="M123.149 0.245117H105.054C99.3898 0.245117 94.7808 4.89274 94.7808 10.6056V41.1488C94.7808 46.8616 99.3898 51.5093 105.054 51.5093H106.063C106.432 51.5093 106.73 51.2081 106.73 50.8365C106.73 50.4649 106.432 50.1639 106.063 50.1639H105.054C100.125 50.1639 96.1152 46.1197 96.1152 41.1488V10.6056C96.1152 5.63472 100.125 1.59049 105.054 1.59049H123.149C128.078 1.59049 132.088 5.63472 132.088 10.6056V41.1488C132.088 46.1197 128.078 50.1639 123.149 50.1639H108.732C108.363 50.1639 108.065 50.4649 108.065 50.8365C108.065 51.2081 108.363 51.5093 108.732 51.5093H123.149C128.814 51.5093 133.422 46.8616 133.422 41.1488V10.6056C133.422 4.89274 128.814 0.245117 123.149 0.245117Z" fill="white"/>
<mask id="mask0_7_71" style="mask-type:luminance" maskUnits="userSpaceOnUse" x="94" y="0" width="40" height="52">
<path d="M133.665 0H94.5377V51.7546H133.665V0V0Z" fill="black"/>
</mask>
<g mask="url(#mask0_7_71)">
<path fill-rule="evenodd" clip-rule="evenodd" d="M123.138 51.7545H108.738C108.224 51.7545 107.805 51.3323 107.805 50.8136C107.805 50.2945 108.224 49.8724 108.738 49.8724H123.138C127.914 49.8724 131.8 45.953 131.8 41.1347V10.6195C131.8 5.80168 127.914 1.88181 123.138 1.88181H105.065C100.289 1.88181 96.4034 5.80168 96.4034 10.6195V41.1347C96.4034 45.953 100.289 49.8724 105.065 49.8724H106.073C106.587 49.8724 107.005 50.2945 107.005 50.8136C107.005 51.3323 106.587 51.7545 106.073 51.7545H105.065C99.2602 51.7545 94.5377 46.9903 94.5377 41.1347V10.6195C94.5377 4.76389 99.2602 -0.000244141 105.065 -0.000244141H123.138C128.943 -0.000244141 133.665 4.76389 133.665 10.6195V41.1347C133.665 46.9903 128.943 51.7545 123.138 51.7545ZM108.738 50.4103C108.518 50.4103 108.338 50.5911 108.338 50.8136C108.338 51.0358 108.518 51.2168 108.738 51.2168H123.138C128.649 51.2168 133.132 46.694 133.132 41.1347V10.6195C133.132 5.06019 128.649 0.537416 123.138 0.537416H105.065C99.5543 0.537416 95.0709 5.06019 95.0709 10.6195V41.1347C95.0709 46.694 99.5543 51.2168 105.065 51.2168H106.073C106.293 51.2168 106.472 51.0358 106.472 50.8136C106.472 50.5911 106.293 50.4103 106.073 50.4103H105.065C99.9949 50.4103 95.8705 46.2491 95.8705 41.1347V10.6195C95.8705 5.50513 99.9949 1.34391 105.065 1.34391H123.138C128.208 1.34391 132.333 5.50513 132.333 10.6195V41.1347C132.333 46.2491 128.208 50.4103 123.138 50.4103H108.738Z" fill="white"/>
</g>
<path fill-rule="evenodd" clip-rule="evenodd" d="M114.291 46.1131H122.608C125.623 46.1131 128.076 43.6396 128.076 40.5993V11.1551C128.076 8.11504 125.623 5.64136 122.608 5.64136H105.596C102.58 5.64136 100.128 8.11504 100.128 11.1551V40.5993C100.128 43.6396 102.58 46.1131 105.596 46.1131H111.623C111.992 46.1131 112.29 45.8118 112.29 45.4407C112.29 45.0691 111.992 44.7684 111.623 44.7684H105.596C103.316 44.7684 101.461 42.8981 101.461 40.5993V11.1551C101.461 8.85628 103.316 6.98624 105.596 6.98624H122.608C124.887 6.98624 126.742 8.85628 126.742 11.1551V40.5993C126.742 42.8981 124.887 44.7684 122.608 44.7684H114.291C113.922 44.7684 113.624 45.0691 113.624 45.4407C113.624 45.8118 113.922 46.1131 114.291 46.1131Z" fill="white"/>
<path fill-rule="evenodd" clip-rule="evenodd" d="M122.594 46.3585H114.29C113.777 46.3585 113.358 45.9366 113.358 45.4181C113.358 44.8998 113.777 44.4779 114.29 44.4779H122.594C124.722 44.4779 126.455 42.7303 126.455 40.5823V11.1724C126.455 9.02447 124.722 7.27683 122.594 7.27683H105.61C103.481 7.27683 101.749 9.02447 101.749 11.1724V40.5823C101.749 42.7303 103.481 44.4779 105.61 44.4779H111.628C112.141 44.4779 112.56 44.8998 112.56 45.4181C112.56 45.9366 112.141 46.3585 111.628 46.3585H105.61C102.453 46.3585 99.8845 43.7673 99.8845 40.5823V11.1724C99.8845 7.98741 102.453 5.39624 105.61 5.39624H122.594C125.75 5.39624 128.319 7.98741 128.319 11.1724V40.5823C128.319 43.7673 125.75 46.3585 122.594 46.3585ZM114.29 45.0151C114.07 45.0151 113.891 45.1961 113.891 45.4181C113.891 45.6403 114.07 45.8213 114.29 45.8213H122.594C125.457 45.8213 127.786 43.471 127.786 40.5823V11.1724C127.786 8.28371 125.457 5.93341 122.594 5.93341H105.61C102.746 5.93341 100.417 8.28371 100.417 11.1724V40.5823C100.417 43.471 102.746 45.8213 105.61 45.8213H111.628C111.848 45.8213 112.027 45.6403 112.027 45.4181C112.027 45.1961 111.848 45.0151 111.628 45.0151H105.61C103.187 45.0151 101.216 43.0266 101.216 40.5823V11.1724C101.216 8.72816 103.187 6.73966 105.61 6.73966H122.594C125.016 6.73966 126.987 8.72816 126.987 11.1724V40.5823C126.987 43.0266 125.016 45.0151 122.594 45.0151H114.29Z" fill="white"/>
<path fill-rule="evenodd" clip-rule="evenodd" d="M120.365 39.3732H108.081C107.683 39.3732 107.317 39.1914 107.075 38.8748C106.85 38.579 106.429 38.5225 106.134 38.7472C105.838 38.9721 105.781 39.3938 106.006 39.6886C106.504 40.342 107.26 40.7171 108.081 40.7171H120.365C121.803 40.7171 122.972 39.5473 122.972 38.1102V13.6447C122.972 12.2074 121.803 11.0378 120.365 11.0378H108.081C106.643 11.0378 105.474 12.2074 105.474 13.6447V36.4693C105.474 36.8404 105.775 37.1411 106.146 37.1411C106.517 37.1411 106.818 36.8404 106.818 36.4693V13.6447C106.818 12.9484 107.384 12.3815 108.081 12.3815H120.365C121.062 12.3815 121.628 12.9484 121.628 13.6447V38.1102C121.628 38.8066 121.062 39.3732 120.365 39.3732Z" fill="white"/>
<path fill-rule="evenodd" clip-rule="evenodd" d="M120.348 40.9623H108.099C107.196 40.9623 106.364 40.5495 105.817 39.8298C105.665 39.6304 105.6 39.3837 105.633 39.1352C105.667 38.8865 105.795 38.666 105.994 38.5139C106.194 38.3616 106.442 38.2961 106.69 38.3304C106.937 38.364 107.158 38.4928 107.309 38.6922C107.498 38.9412 107.786 39.0842 108.099 39.0842H120.348C120.894 39.0842 121.339 38.6385 121.339 38.0913V13.6638C121.339 13.1163 120.894 12.6709 120.348 12.6709H108.099C107.552 12.6709 107.107 13.1163 107.107 13.6638V36.4528C107.107 36.9708 106.686 37.392 106.169 37.392C105.652 37.392 105.231 36.9708 105.231 36.4528V13.6638C105.231 12.0807 106.517 10.7925 108.099 10.7925H120.348C121.929 10.7925 123.215 12.0807 123.215 13.6638V38.0913C123.215 39.6743 121.929 40.9623 120.348 40.9623ZM106.562 38.8585C106.475 38.8585 106.39 38.8865 106.319 38.9412C106.234 39.0059 106.179 39.1003 106.165 39.2073C106.15 39.3133 106.178 39.4192 106.243 39.5046C106.688 40.0898 107.364 40.4256 108.099 40.4256H120.348C121.633 40.4256 122.679 39.378 122.679 38.0913V13.6638C122.679 12.3765 121.633 11.3292 120.348 11.3292H108.099C106.813 11.3292 105.767 12.3765 105.767 13.6638V36.4528C105.767 36.6747 105.947 36.8553 106.169 36.8553C106.391 36.8553 106.571 36.6747 106.571 36.4528V13.6638C106.571 12.8202 107.256 12.1342 108.099 12.1342H120.348C121.19 12.1342 121.875 12.8202 121.875 13.6638V38.0913C121.875 38.9345 121.19 39.6206 120.348 39.6206H108.099C107.617 39.6206 107.174 39.4006 106.882 39.0172C106.817 38.9314 106.723 38.8764 106.617 38.8619C106.599 38.8595 106.58 38.8585 106.562 38.8585Z" fill="white"/>
<path fill-rule="evenodd" clip-rule="evenodd" d="M31.5981 43.3178C32.5129 44.7804 33.754 45.4513 34.9179 45.1108C36.0154 44.7902 36.6971 43.6556 36.6971 42.1498V6.31515C36.6971 5.94306 36.3987 5.64136 36.0302 5.64136C35.6618 5.64136 35.3634 5.94306 35.3634 6.31515V42.1498C35.3634 43.0176 35.043 43.6715 34.5473 43.817C33.9951 43.9779 33.2969 43.5116 32.726 42.5984C32.726 42.5984 12.8855 10.859 11.4178 8.51092C10.5028 7.04781 9.26167 6.37721 8.09781 6.7179C7.0003 7.03849 6.3186 8.17341 6.3186 9.67896V44.7037C6.3186 45.0755 6.61728 45.3772 6.98572 45.3772C7.35415 45.3772 7.65258 45.0755 7.65258 44.7037V9.67896C7.65258 8.8114 7.97265 8.15722 8.46867 8.01226C9.02107 7.85062 9.71905 8.31739 10.2899 9.23034C11.7578 11.5782 31.5981 43.3178 31.5981 43.3178Z" fill="white"/>
<path fill-rule="evenodd" clip-rule="evenodd" d="M7.00788 45.6227C6.49387 45.6227 6.07562 45.1998 6.07562 44.6808V9.69801C6.07562 8.06933 6.82998 6.83728 8.04439 6.48186C9.32636 6.10658 10.6778 6.81888 11.6582 8.38771C13.1242 10.7326 32.9339 42.4342 32.9339 42.4342C33.4304 43.2287 34.0267 43.6604 34.4533 43.5363C34.8253 43.4274 35.0757 42.8622 35.0757 42.1298V6.33813C35.0757 5.81886 35.4939 5.39624 36.0079 5.39624C36.5217 5.39624 36.9402 5.81886 36.9402 6.33813V42.1298C36.9402 43.7585 36.1858 44.9911 34.9714 45.346C33.6902 45.7203 32.3379 45.0087 31.3576 43.4404C31.3576 43.4404 11.5474 11.7388 10.0817 9.39362C9.58543 8.59988 8.99074 8.16745 8.56253 8.29156C8.19021 8.40071 7.94013 8.96584 7.94013 9.69801V44.6808C7.94013 45.1998 7.52164 45.6227 7.00788 45.6227ZM8.71879 6.92337C8.54187 6.92337 8.36616 6.94839 8.1924 6.99892C7.21518 7.28467 6.60834 8.31903 6.60834 9.69801V44.6808C6.60834 44.9032 6.78769 45.0845 7.00788 45.0845C7.22806 45.0845 7.40742 44.9032 7.40742 44.6808V9.69801C7.40742 8.70854 7.80282 7.95356 8.41452 7.77475C9.09622 7.57533 9.88679 8.07375 10.5323 9.10615C11.9982 11.4513 31.8079 43.1529 31.8079 43.1529C32.6544 44.5071 33.7825 45.135 34.8231 44.8287C35.8004 44.5432 36.4074 43.5088 36.4074 42.1298V6.33813C36.4074 6.11566 36.2281 5.93439 36.0079 5.93439C35.7877 5.93439 35.6084 6.11566 35.6084 6.33813V42.1298C35.6084 43.1195 35.2132 43.8743 34.6013 44.0533C33.9201 44.2508 33.129 43.7546 32.4835 42.7217C32.4835 42.7217 12.6736 11.0203 11.2079 8.67518C10.5026 7.54664 9.60196 6.92337 8.71879 6.92337Z" fill="white"/>
<path fill-rule="evenodd" clip-rule="evenodd" d="M40.1797 0.245117H31.9991C30.5694 0.245117 29.4058 1.4161 29.4058 2.85542V19.8449L29.4051 20.5869C29.4 23.0873 29.3987 23.7594 30.1302 25.1399C30.5038 25.8443 30.3777 26.4001 30.06 26.5851C29.7492 26.7651 29.1924 26.601 28.7025 25.8122C28.5569 25.5777 13.8226 2.02391 12.8126 0.973117L12.789 0.94957C12.3071 0.495551 11.6774 0.245117 11.0168 0.245117H2.83627C1.40654 0.245117 0.24292 1.4161 0.24292 2.85542V48.899C0.24292 50.3383 1.40654 51.5093 2.83627 51.5093H11.0168C12.4468 51.5093 13.6099 50.3383 13.6099 48.899V21.9976C13.6099 21.6262 13.3108 21.3247 12.9416 21.3247C12.5725 21.3247 12.2733 21.6262 12.2733 21.9976V48.899C12.2733 49.5966 11.7099 50.1639 11.0168 50.1639H2.83627C2.14364 50.1639 1.57957 49.5966 1.57957 48.899V2.85542C1.57957 2.15783 2.14364 1.59049 2.83627 1.59049H11.0168C11.3296 1.59049 11.628 1.70651 11.8592 1.91672C12.7941 2.98076 25.3217 22.9066 27.569 26.5255C28.5294 28.072 29.8807 28.2442 30.7296 27.7497C31.6028 27.2415 32.0822 25.964 31.3099 24.5068C30.7361 23.4241 30.7371 23.0464 30.7417 20.5896L30.7424 2.85542C30.7424 2.15783 31.3065 1.59049 31.9991 1.59049H40.1797C40.8726 1.59049 41.4361 2.15783 41.4361 2.85542V48.899C41.4361 49.5966 40.8726 50.1639 40.1797 50.1639H31.9991C31.6735 50.1639 31.366 50.0398 31.1313 49.8139C30.4554 49.0268 17.0094 27.8453 16.8395 27.5893C16.3153 26.798 16.4135 25.6143 16.4142 25.6047C16.4492 25.2346 16.1797 24.9064 15.812 24.871C15.4438 24.8352 15.1184 25.1072 15.0834 25.4771C15.0771 25.5446 14.9364 27.1414 15.7274 28.3359C15.8898 28.5809 29.6267 50.1663 30.1616 50.7406L30.1806 50.7599C30.6686 51.2431 31.3143 51.5093 31.9991 51.5093H40.1797C41.6097 51.5093 42.7728 50.3383 42.7728 48.899V2.85542C42.7728 1.4161 41.6097 0.245117 40.1797 0.245117Z" fill="white"/>
<mask id="mask1_7_71" style="mask-type:luminance" maskUnits="userSpaceOnUse" x="0" y="0" width="44" height="52">
<path d="M0 51.9996V0.134521H43.0147V51.9996H0H0Z" fill="black"/>
</mask>
<g mask="url(#mask1_7_71)">
<path fill-rule="evenodd" clip-rule="evenodd" d="M40.1571 51.9996H31.9861C31.2317 51.9996 30.5201 51.706 29.9823 51.1723L29.9592 51.1485C29.6372 50.8021 25.3567 44.1493 16.4852 30.2079C15.8954 29.2815 15.5362 28.7166 15.5109 28.6784C14.6684 27.4029 14.8173 25.7126 14.8239 25.6408C14.8477 25.3898 14.9668 25.1632 15.1598 25.0025C15.352 24.8424 15.5946 24.7681 15.8437 24.7916C16.3562 24.8409 16.7339 25.3023 16.6848 25.8198C16.684 25.8287 16.5992 26.9253 17.0663 27.6322C17.094 27.6739 17.4761 28.2761 18.0994 29.2577C26.5063 42.4986 30.9546 49.4291 31.3211 49.8568C31.4881 50.0158 31.7301 50.1139 31.9861 50.1139H40.1571C40.702 50.1139 41.145 49.6665 41.145 49.1168V3.01758C41.145 2.46765 40.702 2.0205 40.1571 2.0205H31.9861C31.4409 2.0205 30.9979 2.46765 30.9979 3.01758L30.9969 20.7734C30.9923 23.2287 30.9916 23.5441 31.5333 24.5684C32.3841 26.1784 31.8346 27.6013 30.8514 28.175C29.8965 28.7335 28.3878 28.5594 27.3347 26.8593C25.1118 23.2711 12.6782 3.44486 11.6794 2.2675C11.499 2.10831 11.2684 2.0205 11.0281 2.0205H2.85697C2.31235 2.0205 1.86907 2.46765 1.86907 3.01758V49.1168C1.86907 49.6665 2.31235 50.1139 2.85697 50.1139H11.0281C11.5729 50.1139 12.0162 49.6665 12.0162 49.1168V22.183C12.0162 21.663 12.4354 21.2399 12.9507 21.2399C13.4661 21.2399 13.8853 21.663 13.8853 22.183V49.1168C13.8853 50.7067 12.6036 51.9996 11.0281 51.9996H2.85697C1.28167 51.9996 -0.000305176 50.7067 -0.000305176 49.1168V3.01758C-0.000305176 1.4279 1.28167 0.134521 2.85697 0.134521H11.0281C11.7562 0.134521 12.4495 0.410955 12.9805 0.912805L13.009 0.940767C14.0608 2.03767 28.7737 25.6238 28.9198 25.8593C29.338 26.5356 29.7531 26.6361 29.9159 26.5424C30.088 26.4421 30.1918 26.0384 29.8839 25.4558C29.1212 24.0138 29.1229 23.2618 29.1278 20.7702L29.1288 20.0272V3.01758C29.1288 1.4279 30.4105 0.134521 31.9861 0.134521H40.1571C41.7327 0.134521 43.0144 1.4279 43.0144 3.01758V49.1168C43.0144 50.7067 41.7327 51.9996 40.1571 51.9996ZM15.753 25.3261C15.6604 25.3261 15.5717 25.3582 15.4995 25.4181C15.4171 25.487 15.3661 25.5844 15.3559 25.692C15.3498 25.7558 15.2169 27.2618 15.9554 28.3796C15.981 28.4181 16.3421 28.9859 16.9346 29.917C25.5203 43.4091 30.0326 50.4274 30.3459 50.7769L30.3609 50.7923C30.794 51.2221 31.3727 51.461 31.9861 51.461H40.1571C41.4381 51.461 42.4805 50.4094 42.4805 49.1168V3.01758C42.4805 1.72494 41.4381 0.673408 40.1571 0.673408H31.9861C30.7051 0.673408 29.6629 1.72494 29.6629 3.01758L29.6617 20.7709C29.6569 23.2829 29.6557 23.8796 30.3551 25.2022C30.8076 26.0585 30.611 26.7593 30.183 27.009C29.7502 27.2611 29.0525 27.0904 28.4668 26.1451C27.3364 24.3214 13.5609 2.2913 12.6299 1.32022L12.6109 1.30158C12.1839 0.898088 11.6198 0.673408 11.0281 0.673408H2.85697C1.57622 0.673408 0.53387 1.72494 0.53387 3.01758V49.1168C0.53387 50.4094 1.57622 51.461 2.85697 51.461H11.0281C12.3091 51.461 13.3514 50.4094 13.3514 49.1168V22.183C13.3514 21.9601 13.1716 21.7788 12.9507 21.7788C12.73 21.7788 12.5501 21.9601 12.5501 22.183V49.1168C12.5501 49.9638 11.8675 50.6525 11.0281 50.6525H2.85697C2.0178 50.6525 1.33489 49.9638 1.33489 49.1168V3.01758C1.33489 2.17086 2.0178 1.48162 2.85697 1.48162H11.0281C11.406 1.48162 11.7683 1.62216 12.0485 1.87799L12.0694 1.89933C13.0313 2.99624 25.4693 22.8315 27.7875 26.5733C28.6527 27.9702 29.8438 28.1409 30.584 27.7087C31.3452 27.2645 31.7537 26.1304 31.0618 24.8218C30.4572 23.6783 30.4581 23.2348 30.4628 20.7734L30.464 3.01758C30.464 2.17086 31.1466 1.48162 31.9861 1.48162H40.1571C40.9966 1.48162 41.6792 2.17086 41.6792 3.01758V49.1168C41.6792 49.9638 40.9966 50.6525 40.1571 50.6525H31.9861C31.5921 50.6525 31.2188 50.5022 30.9347 50.2277C30.3996 49.6052 23.0973 38.1284 17.6496 29.5484C17.0296 28.5717 16.6493 27.9732 16.6218 27.931C16.0422 27.0538 16.1523 25.7821 16.1533 25.7693C16.1744 25.5468 16.0123 25.3491 15.7926 25.328C15.779 25.3266 15.7661 25.3261 15.753 25.3261Z" fill="white"/>
</g>
<path fill-rule="evenodd" clip-rule="evenodd" d="M180.164 0.245117H171.983C170.553 0.245117 169.39 1.4161 169.39 2.85542V17.5574C169.39 21.0736 169.311 21.6446 168.744 22.2561C168.204 22.8384 167.806 23.4565 167.579 24.0427C164.109 18.5079 153.642 1.8527 152.797 0.973117L152.773 0.94957C152.291 0.495551 151.662 0.245117 151.001 0.245117H142.82C141.39 0.245117 140.227 1.4161 140.227 2.85542V48.899C140.227 50.3383 141.39 51.5093 142.82 51.5093H151.001C152.431 51.5093 153.594 50.3383 153.594 48.899V23.5897C153.594 22.5249 153.123 21.7376 152.843 21.3628C152.62 21.0665 152.201 21.0071 151.907 21.2306C151.612 21.4545 151.553 21.8761 151.775 22.1729C151.955 22.4133 152.257 22.9171 152.257 23.5897V48.899C152.257 49.5966 151.694 50.1639 151.001 50.1639H142.82C142.128 50.1639 141.564 49.5966 141.564 48.899V2.85542C141.564 2.15783 142.128 1.59049 142.82 1.59049H151.001C151.314 1.59049 151.612 1.70651 151.843 1.91697C152.766 2.96629 164.968 22.3684 167.456 26.3692C167.527 27.9116 168.428 28.1375 168.711 28.1701C169.359 28.2432 169.985 27.7916 170.133 27.1406C170.267 26.5478 169.996 25.7678 168.83 25.356C168.742 25.3248 168.721 25.2927 168.705 25.2282C168.615 24.8607 168.941 24.0157 169.721 23.1742C170.687 22.1332 170.727 21.1506 170.727 17.5574V2.85542C170.727 2.15783 171.29 1.59049 171.983 1.59049H180.164C180.857 1.59049 181.42 2.15783 181.42 2.85542V48.899C181.42 49.5966 180.857 50.1639 180.164 50.1639H171.983C171.658 50.1639 171.351 50.04 171.116 49.8149C170.455 49.0319 162.62 36.7243 156.09 26.3871C155.892 26.0734 155.479 25.9814 155.168 26.1801C154.856 26.3795 154.764 26.7955 154.963 27.109C159.289 33.9585 169.431 49.9728 170.145 50.7406L170.164 50.7599C170.652 51.2434 171.298 51.5093 171.983 51.5093H180.164C181.594 51.5093 182.757 50.3383 182.757 48.899V2.85542C182.757 1.4161 181.594 0.245117 180.164 0.245117Z" fill="white"/>
<path fill-rule="evenodd" clip-rule="evenodd" d="M180.071 51.9999H171.9C171.145 51.9999 170.434 51.706 169.896 51.1723L169.874 51.15C169.166 50.3884 160.047 35.9716 154.674 27.4453C154.54 27.2327 154.496 26.98 154.55 26.7345C154.604 26.4885 154.75 26.2785 154.961 26.1434C155.395 25.865 155.975 25.9947 156.251 26.433C162.729 36.7119 170.518 48.9797 171.228 49.8485C171.411 50.0197 171.649 50.1141 171.9 50.1141H180.071C180.616 50.1141 181.059 49.6667 181.059 49.1171V3.01758C181.059 2.46765 180.616 2.02075 180.071 2.02075H171.9C171.355 2.02075 170.912 2.46765 170.912 3.01758V17.7373C170.912 21.4187 170.869 22.4278 169.836 23.5448C169.108 24.3322 168.864 25.0408 168.878 25.305C170.179 25.7877 170.463 26.7266 170.312 27.3926C170.134 28.1755 169.386 28.7188 168.602 28.6305C168.277 28.5935 167.222 28.3406 167.115 26.644C164.029 21.6733 152.531 3.37446 151.593 2.26775C151.413 2.10831 151.182 2.02075 150.942 2.02075H142.771C142.226 2.02075 141.783 2.46765 141.783 3.01758V49.1171C141.783 49.6667 142.226 50.1141 142.771 50.1141H150.942C151.487 50.1141 151.93 49.6667 151.93 49.1171V23.7771C151.93 23.1818 151.662 22.7344 151.502 22.5208C151.192 22.1057 151.274 21.5131 151.686 21.2002C151.885 21.0483 152.132 20.9836 152.378 21.0189C152.625 21.054 152.844 21.184 152.995 21.3849C153.295 21.7871 153.799 22.6329 153.799 23.7771V49.1171C153.799 50.7067 152.517 51.9999 150.942 51.9999H142.771C141.195 51.9999 139.914 50.7067 139.914 49.1171V3.01758C139.914 1.4279 141.195 0.134521 142.771 0.134521H150.942C151.67 0.134521 152.363 0.411201 152.895 0.912804L152.923 0.941257C153.757 1.81079 163.162 16.79 167.463 23.666C167.711 23.1879 168.053 22.7084 168.47 22.2578C168.949 21.74 169.042 21.3257 169.042 17.7373V3.01758C169.042 1.4279 170.324 0.134521 171.9 0.134521H180.071C181.647 0.134521 182.928 1.4279 182.928 3.01758V49.1171C182.928 50.7067 181.647 51.9999 180.071 51.9999ZM155.462 26.5353C155.388 26.5353 155.314 26.5557 155.247 26.5979C155.157 26.656 155.095 26.7458 155.071 26.8515C155.048 26.9567 155.067 27.0651 155.124 27.1561C164.117 41.425 169.774 50.2549 170.259 50.7769L170.274 50.7909C170.708 51.2221 171.286 51.4612 171.9 51.4612H180.071C181.352 51.4612 182.394 50.4092 182.394 49.1171V3.01758C182.394 1.72518 181.352 0.673654 180.071 0.673654H171.9C170.619 0.673654 169.577 1.72518 169.577 3.01758V17.7373C169.577 21.351 169.49 21.9448 168.86 22.6255C168.353 23.1737 167.969 23.7626 167.749 24.3287L167.557 24.8252L167.275 24.3741C160.588 13.683 153.208 2.01241 152.543 1.32022L152.524 1.30109C152.098 0.898333 151.534 0.673654 150.942 0.673654H142.771C141.49 0.673654 140.448 1.72518 140.448 3.01758V49.1171C140.448 50.4092 141.49 51.4612 142.771 51.4612H150.942C152.223 51.4612 153.265 50.4092 153.265 49.1171V23.7771C153.265 22.7896 152.828 22.0579 152.568 21.7096C152.504 21.6235 152.41 21.5678 152.304 21.5526C152.197 21.5377 152.092 21.5654 152.007 21.6301C151.831 21.7641 151.795 22.0184 151.929 22.1965C152.128 22.4636 152.464 23.0246 152.464 23.7771V49.1171C152.464 49.9638 151.781 50.6528 150.942 50.6528H142.771C141.931 50.6528 141.249 49.9638 141.249 49.1171V3.01758C141.249 2.17086 141.931 1.48186 142.771 1.48186H150.942C151.32 1.48186 151.682 1.62241 151.962 1.87799L151.984 1.89933C152.959 3.01243 165.656 23.276 167.604 26.4171L167.641 26.4764L167.645 26.5471C167.705 27.8461 168.376 28.0624 168.662 28.0948C169.176 28.1522 169.674 27.7924 169.791 27.2721C169.844 27.0391 169.919 26.2447 168.662 25.7995C168.496 25.7411 168.405 25.6427 168.366 25.4813C168.237 24.9515 168.681 24.0037 169.445 23.1774C170.341 22.2093 170.378 21.2504 170.378 17.7373V3.01758C170.378 2.17086 171.061 1.48186 171.9 1.48186H180.071C180.91 1.48186 181.593 2.17086 181.593 3.01758V49.1171C181.593 49.9638 180.91 50.6528 180.071 50.6528H171.9C171.507 50.6528 171.134 50.5024 170.85 50.2287L170.831 50.2081C169.967 49.1843 158.159 30.4643 155.801 26.722C155.724 26.6013 155.594 26.5353 155.462 26.5353Z" fill="white"/>
<path fill-rule="evenodd" clip-rule="evenodd" d="M171.339 43.3139C172.254 44.7797 173.495 45.4513 174.659 45.1101C175.757 44.789 176.438 43.6521 176.438 42.1436V7.05222C176.438 6.67939 176.14 6.3772 175.771 6.3772C175.403 6.3772 175.104 6.67939 175.104 7.05222V42.1436C175.104 43.0129 174.784 43.6683 174.288 43.8138C173.735 43.9754 173.038 43.5076 172.467 42.5932C171.064 40.3455 152.621 10.7849 151.159 8.4415C150.244 6.97544 149.002 6.3041 147.839 6.64505C146.742 6.96612 146.06 8.10301 146.06 9.61174V44.7022C146.06 45.075 146.358 45.3772 146.727 45.3772C147.095 45.3772 147.394 45.075 147.394 44.7022V9.61174C147.394 8.74246 147.714 8.08682 148.21 7.94161C148.764 7.77997 149.46 8.24822 150.031 9.16214C151.494 11.5058 169.937 41.0663 171.339 43.3139Z" fill="white"/>
<path fill-rule="evenodd" clip-rule="evenodd" d="M146.749 45.6226C146.235 45.6226 145.817 45.199 145.817 44.6788V9.63227C145.817 8.0004 146.571 6.76589 147.785 6.40999C149.068 6.03397 150.419 6.74774 151.399 8.31927C152.216 9.6281 158.334 19.4362 163.814 28.222L172.675 42.4286C173.171 43.2235 173.768 43.6577 174.195 43.5326C174.567 43.4232 174.817 42.8571 174.817 42.1234V7.07568C174.817 6.55544 175.235 6.13208 175.749 6.13208C176.263 6.13208 176.681 6.55544 176.681 7.07568V42.1234C176.681 43.7553 175.927 44.9898 174.713 45.3455C173.428 45.7205 172.079 45.0072 171.098 43.4362C170.287 42.1357 163.765 31.6786 158.137 22.6561L149.823 9.32714C149.327 8.53217 148.73 8.09778 148.303 8.22336C147.931 8.33227 147.681 8.89838 147.681 9.63227V44.6788C147.681 45.199 147.263 45.6226 146.749 45.6226ZM148.46 6.85223C148.283 6.85223 148.107 6.877 147.933 6.92802C146.956 7.21451 146.349 8.25059 146.349 9.63227V44.6788C146.349 44.902 146.529 45.0835 146.749 45.0835C146.969 45.0835 147.149 44.902 147.149 44.6788V9.63227C147.149 8.64083 147.544 7.88438 148.155 7.70533C148.836 7.50566 149.628 8.00531 150.274 9.03917L158.587 22.3683C164.215 31.3906 170.738 41.8477 171.549 43.1482C172.395 44.5049 173.524 45.134 174.564 44.8272C175.542 44.5412 176.148 43.5049 176.148 42.1234V7.07568C176.148 6.85248 175.969 6.67146 175.749 6.67146C175.529 6.67146 175.349 6.85248 175.349 7.07568V42.1234C175.349 43.1146 174.954 43.8708 174.343 44.0504C173.661 44.2478 172.871 43.7509 172.224 42.7163L163.363 28.5097C157.883 19.7244 151.766 9.91606 150.949 8.60723C150.244 7.47672 149.343 6.85223 148.46 6.85223Z" fill="white"/>
<path fill-rule="evenodd" clip-rule="evenodd" d="M54.6813 30.5947V40.3558C54.6813 43.3951 57.1371 45.868 60.1562 45.868H81.9619C82.3306 45.868 82.6295 45.5671 82.6295 45.1957C82.6295 44.8243 82.3306 44.5234 81.9619 44.5234H60.1562C57.8734 44.5234 56.0167 42.6538 56.0167 40.3558V30.5947C56.0167 28.2964 57.8734 26.4269 60.1562 26.4269H74.5131C74.8818 26.4269 75.1807 26.1259 75.1807 25.7548C75.1807 25.3834 74.8818 25.0825 74.5131 25.0825H60.1562C57.8734 25.0825 56.0167 23.2129 56.0167 20.9149V11.1536C56.0167 8.85554 57.8734 6.986 60.1562 6.986H81.9619C82.3306 6.986 82.6295 6.68504 82.6295 6.31368C82.6295 5.94232 82.3306 5.6416 81.9619 5.6416H60.1562C57.1371 5.6416 54.6813 8.11454 54.6813 11.1536V20.9149C54.6813 23.0003 55.8378 24.8188 57.5388 25.7548C55.8378 26.6908 54.6813 28.5091 54.6813 30.5947Z" fill="white"/>
<path fill-rule="evenodd" clip-rule="evenodd" d="M81.9393 46.1132H60.1705C57.0097 46.1132 54.4382 43.5228 54.4382 40.3388V30.589C54.4382 28.6312 55.424 26.818 57.0391 25.7547C55.424 24.6912 54.4382 22.8783 54.4382 20.9204V11.1707C54.4382 7.98667 57.0097 5.39624 60.1705 5.39624H81.9393C82.454 5.39624 82.8725 5.81788 82.8725 6.33641C82.8725 6.85469 82.454 7.27633 81.9393 7.27633H60.1705C58.0389 7.27633 56.3047 9.02349 56.3047 11.1707V20.9204C56.3047 23.0677 58.0389 24.8146 60.1705 24.8146H74.5031C75.0176 24.8146 75.4363 25.2365 75.4363 25.7547C75.4363 26.2728 75.0176 26.6947 74.5031 26.6947H60.1705C58.0389 26.6947 56.3047 28.4418 56.3047 30.589V40.3388C56.3047 42.4862 58.0389 44.2331 60.1705 44.2331H81.9393C82.454 44.2331 82.8725 44.655 82.8725 45.1733C82.8725 45.6913 82.454 46.1132 81.9393 46.1132ZM60.1705 5.93341C57.3038 5.93341 54.9714 8.28298 54.9714 11.1707V20.9204C54.9714 22.8351 56.0114 24.5972 57.6856 25.519L58.1135 25.7547L57.6856 25.9902C56.0114 26.912 54.9714 28.6743 54.9714 30.589V40.3388C54.9714 43.2262 57.3038 45.5763 60.1705 45.5763H81.9393C82.1602 45.5763 82.3393 45.3953 82.3393 45.1733C82.3393 44.9508 82.1602 44.7703 81.9393 44.7703H60.1705C57.7449 44.7703 55.7712 42.782 55.7712 40.3388V30.589C55.7712 28.1455 57.7449 26.1577 60.1705 26.1577H74.5031C74.7235 26.1577 74.9029 25.977 74.9029 25.7547C74.9029 25.5325 74.7235 25.3517 74.5031 25.3517H60.1705C57.7449 25.3517 55.7712 23.364 55.7712 20.9204V11.1707C55.7712 8.72718 57.7449 6.73916 60.1705 6.73916H81.9393C82.1602 6.73916 82.3393 6.55839 82.3393 6.33641C82.3393 6.11418 82.1602 5.93341 81.9393 5.93341H60.1705Z" fill="white"/>
<path fill-rule="evenodd" clip-rule="evenodd" d="M85.3853 0.245117H59.6173C53.9475 0.245117 49.3346 4.89274 49.3346 10.6056V41.1488C49.3346 46.8616 53.9475 51.5093 59.6173 51.5093H85.3853C86.8139 51.5093 87.976 50.3383 87.976 48.899V42.279C87.976 40.84 86.8139 39.6687 85.3853 39.6687H63.6261C63.5719 39.6687 63.5179 39.6641 63.4647 39.6574C63.4489 39.6552 63.4331 39.6518 63.4176 39.6493C63.3794 39.643 63.3418 39.6351 63.3048 39.6251C63.2883 39.6204 63.2715 39.616 63.255 39.6108C63.2168 39.5991 63.1792 39.5851 63.1425 39.5694C63.1296 39.564 63.1167 39.5593 63.1043 39.5539C63.0552 39.5311 63.0071 39.5059 62.9612 39.4767C62.8455 39.4041 62.741 39.3118 62.6523 39.2024C62.4192 38.914 61.999 38.8706 61.713 39.1058C61.4272 39.3405 61.3842 39.7639 61.617 40.0521C61.7973 40.2751 62.01 40.462 62.2442 40.6113C62.2459 40.6128 62.2474 40.6143 62.2491 40.6155C62.2498 40.616 62.2508 40.6162 62.2513 40.6165C62.348 40.6776 62.4489 40.731 62.5522 40.7781C62.5743 40.7884 62.5969 40.7963 62.6192 40.8059C62.6992 40.8402 62.7806 40.8704 62.864 40.8961C62.8958 40.9059 62.9276 40.915 62.9597 40.9236C63.0384 40.9447 63.1179 40.9611 63.1989 40.9751C63.23 40.98 63.2608 40.9866 63.2924 40.9906C63.4025 41.0053 63.5133 41.0143 63.6261 41.0143H85.3853C86.0777 41.0143 86.6406 41.5814 86.6406 42.279V48.899C86.6406 49.5966 86.0777 50.1639 85.3853 50.1639H59.6173C54.6834 50.1639 50.67 46.1197 50.67 41.1488V10.6056C50.67 5.63472 54.6834 1.59049 59.6173 1.59049H85.3853C86.0777 1.59049 86.6406 2.15783 86.6406 2.85542V9.47536C86.6406 10.1729 86.0777 10.7403 85.3853 10.7403H63.6261C62.1976 10.7403 61.0354 11.9113 61.0354 13.3503V18.6921C61.0354 20.1312 62.1976 21.3024 63.6261 21.3024H78.0923C78.7847 21.3024 79.3478 21.8698 79.3478 22.5671V29.187C79.3478 29.8846 78.7847 30.452 78.0923 30.452H63.6261C62.1976 30.452 61.0354 31.6232 61.0354 33.0623V36.6419C61.0354 37.0133 61.3341 37.3147 61.703 37.3147C62.0719 37.3147 62.3706 37.0133 62.3706 36.6419V33.0623C62.3706 32.3647 62.9337 31.7976 63.6261 31.7976H78.0923C79.5211 31.7976 80.6832 30.6264 80.6832 29.187V22.5671C80.6832 21.128 79.5211 19.9568 78.0923 19.9568H63.6261C62.9337 19.9568 62.3706 19.3897 62.3706 18.6921V13.3503C62.3706 12.6528 62.9337 12.0857 63.6261 12.0857H85.3853C86.8139 12.0857 87.976 10.9147 87.976 9.47536V2.85542C87.976 1.4161 86.8139 0.245117 85.3853 0.245117Z" fill="white"/>
<mask id="mask2_7_71" style="mask-type:luminance" maskUnits="userSpaceOnUse" x="49" y="0" width="40" height="52">
<path d="M88.2192 0H49.0917V51.7546H88.2192V0V0Z" fill="black"/>
</mask>
<g mask="url(#mask2_7_71)">
<path fill-rule="evenodd" clip-rule="evenodd" d="M85.3646 51.7545H59.6285C53.8186 51.7545 49.0917 46.9903 49.0917 41.1347V10.6195C49.0917 4.76389 53.8186 -0.000244141 59.6285 -0.000244141H85.3646C86.9385 -0.000244141 88.2192 1.29019 88.2192 2.87668V9.49025C88.2192 11.0767 86.9385 12.3672 85.3646 12.3672H63.6323C63.088 12.3672 62.6454 12.8133 62.6454 13.362V18.6987C62.6454 19.2471 63.088 19.6935 63.6323 19.6935H78.0808C79.6547 19.6935 80.9352 20.984 80.9352 22.5702V29.184C80.9352 30.7703 79.6547 32.0607 78.0808 32.0607H63.6323C63.088 32.0607 62.6454 32.5071 62.6454 33.0556V36.632C62.6454 37.1508 62.2264 37.5729 61.7117 37.5729C61.197 37.5729 60.7782 37.1508 60.7782 36.632V33.0556C60.7782 31.4693 62.0585 30.1789 63.6323 30.1789H78.0808C78.6252 30.1789 79.0678 29.7325 79.0678 29.184V22.5702C79.0678 22.0218 78.6252 21.5753 78.0808 21.5753H63.6323C62.0585 21.5753 60.7782 20.2849 60.7782 18.6987V13.362C60.7782 11.7755 62.0585 10.4851 63.6323 10.4851H85.3646C85.909 10.4851 86.3518 10.0389 86.3518 9.49025V2.87668C86.3518 2.32798 85.909 1.88181 85.3646 1.88181H59.6285C54.8483 1.88181 50.9589 5.80168 50.9589 10.6195V41.1347C50.9589 45.953 54.8483 49.8724 59.6285 49.8724H85.3646C85.909 49.8724 86.3518 49.4262 86.3518 48.8775V42.264C86.3518 41.7153 85.909 41.2691 85.3646 41.2691H63.6323C63.5174 41.2691 63.3971 41.2608 63.2644 41.2431C63.2406 41.2404 63.2148 41.2358 63.1893 41.2311L63.1616 41.2259C63.0724 41.2112 62.9852 41.1926 62.8984 41.1698C62.8622 41.16 62.8272 41.1502 62.7919 41.1391C62.7008 41.1107 62.6111 41.0775 62.5224 41.0393C62.484 41.0241 62.4658 41.017 62.4481 41.0084C62.336 40.9574 62.2289 40.9 62.1302 40.8386L62.093 40.8144C61.8366 40.6485 61.6099 40.4452 61.4188 40.209C61.0939 39.8067 61.1539 39.2129 61.553 38.8852C61.7462 38.7263 61.99 38.6537 62.2376 38.6779C62.4855 38.7039 62.7088 38.8251 62.8666 39.0201C62.9353 39.1055 63.0172 39.1783 63.1098 39.2362C63.1458 39.259 63.1835 39.2791 63.2221 39.2968L63.2527 39.3093C63.2816 39.3213 63.3106 39.3319 63.3402 39.3412L63.3798 39.3522C63.409 39.3603 63.4379 39.3665 63.4673 39.3714L63.471 39.6446L63.5045 39.378C63.5468 39.3831 63.5893 39.3871 63.6323 39.3871H85.3646C86.9385 39.3871 88.2192 40.6777 88.2192 42.264V48.8775C88.2192 50.4638 86.9385 51.7545 85.3646 51.7545ZM59.6285 0.537416C54.1124 0.537416 49.6252 5.06019 49.6252 10.6195V41.1347C49.6252 46.694 54.1124 51.2168 59.6285 51.2168H85.3646C86.6444 51.2168 87.6855 50.1672 87.6855 48.8775V42.264C87.6855 40.9743 86.6444 39.9247 85.3646 39.9247H63.6323C63.5667 39.9247 63.5021 39.9196 63.4374 39.9115L63.393 39.9041C63.3341 39.8941 63.2882 39.8845 63.2428 39.8722L63.1847 39.8553C63.1366 39.8408 63.0906 39.8237 63.0454 39.8043L63.0034 39.7871C62.9409 39.7584 62.8828 39.7275 62.8274 39.6924C62.685 39.6027 62.5591 39.4908 62.4532 39.3598C62.3854 39.2764 62.2896 39.2242 62.1834 39.2134C62.0772 39.2021 61.9732 39.234 61.8903 39.3017C61.8072 39.3701 61.7557 39.4663 61.745 39.5735C61.734 39.6807 61.7652 39.7856 61.8325 39.8693C61.9912 40.0653 62.1802 40.2338 62.3946 40.3704L62.4143 40.3836C62.4925 40.4322 62.5788 40.4778 62.6699 40.5198L62.7305 40.5445C62.8019 40.575 62.8748 40.6019 62.9497 40.625C62.9788 40.6343 63.0073 40.6422 63.0359 40.65C63.1059 40.6689 63.1774 40.6831 63.2496 40.6956L63.2848 40.702C63.3006 40.7047 63.3159 40.7077 63.332 40.7099C63.443 40.7243 63.541 40.7315 63.6323 40.7315H85.3646C86.2033 40.7315 86.8852 41.4187 86.8852 42.264V48.8775C86.8852 49.7228 86.2033 50.4103 85.3646 50.4103H59.6285C54.554 50.4103 50.4255 46.2491 50.4255 41.1347V10.6195C50.4255 5.50513 54.554 1.34391 59.6285 1.34391H85.3646C86.2033 1.34391 86.8852 2.03144 86.8852 2.87668V9.49025C86.8852 10.3355 86.2033 11.0228 85.3646 11.0228H63.6323C62.3526 11.0228 61.3117 12.0721 61.3117 13.362V18.6987C61.3117 19.9884 62.3526 21.0377 63.6323 21.0377H78.0808C78.9193 21.0377 79.6015 21.7252 79.6015 22.5702V29.184C79.6015 30.029 78.9193 30.7163 78.0808 30.7163H63.6323C62.3526 30.7163 61.3117 31.7659 61.3117 33.0556V36.632C61.3117 36.8543 61.491 37.035 61.7117 37.035C61.9324 37.035 62.112 36.8543 62.112 36.632V33.0556C62.112 32.2106 62.7939 31.5233 63.6323 31.5233H78.0808C79.3604 31.5233 80.4017 30.4737 80.4017 29.184V22.5702C80.4017 21.2805 79.3604 20.2312 78.0808 20.2312H63.6323C62.7939 20.2312 62.112 19.5437 62.112 18.6987V13.362C62.112 12.5168 62.7939 11.8295 63.6323 11.8295H85.3646C86.6444 11.8295 87.6855 10.7802 87.6855 9.49025V2.87668C87.6855 1.58674 86.6444 0.537416 85.3646 0.537416H59.6285Z" fill="white"/>
</g>
</g>
<defs>
<clipPath id="clip0_7_71">
<rect width="183" height="52" fill="white"/>
</clipPath>
</defs>
</svg>
